<?xml version="1.0" encoding="UTF-8"?>
<svg width="290px" height="68px" viewBox="0 0 290 68" version="1.1" xmlns="http://www.w3.org/2000/svg" xmlns:xlink="http://www.w3.org/1999/xlink">
    <title>leap</title>
    <defs>
        <polygon id="path-1" points="0 0 213 0 213 68 0 68"></polygon>
    </defs>
    <g id="Agencies" stroke="none" stroke-width="1" fill="none" fill-rule="evenodd">
        <g id="Leap" transform="translate(-367.000000, -301.000000)">
            <g id="leap" transform="translate(367.000000, 301.000000)">
                <g id="Group-5">
                    <mask id="mask-2" fill="white">
                        <use xlink:href="#path-1"></use>
                    </mask>
                    <g id="Clip-2"></g>
                    <polyline id="Fill-1" fill="#FFFFFE" mask="url(#mask-2)" points="-0.0467025036 68 -0.0467025036 0.481751491 4.97770851 0.481751491 4.97770851 63.3705236 44.6896257 63.3705236 44.6896257 68 -0.0467025036 68"></polyline>
                    <polyline id="Fill-3" fill="#FFFFFE" mask="url(#mask-2)" points="117.829638 7.42674315 76.5718681 7.42674315 76.5718681 30.478552 113.481635 30.478552 113.481635 37.4235437 76.5718681 37.4235437 76.5718681 61.0557854 118.313009 61.0557854 118.313009 68 68.9383439 68 68.9383439 0.481751491 117.829638 0.481751491 117.829638 7.42674315"></polyline>
                    <path d="M177.539567,14.1782572 L165.944114,41.1858674 L189.230761,41.1858674 L177.539567,14.1782572 Z M213,68 L200.439362,68 L193.578764,51.6997052 L161.596111,51.6997052 L154.639773,68 L142.465209,68 L172.225601,0 L183.239608,0 L213,68 L213,68 Z" id="Fill-4" fill="#FFFFFE" mask="url(#mask-2)"></path>
                </g>
                <path d="M275.075133,23.8000783 C275.075133,17.0974291 270.48346,13.5031187 263.11659,13.5031187 L251.732198,13.5031187 L251.732198,34.2918959 L263.404051,34.2918959 C270.77015,34.2918959 275.075133,29.8226805 275.075133,23.9941538 L275.075133,23.8000783 Z M262.926233,47.6001565 L251.732198,47.6001565 L251.732198,68 L237,68 L237,0 L264.361228,0 C280.336523,0 290,9.61769512 290,23.5089649 L290,23.703823 C290,39.4395931 277.945893,47.6001565 262.926233,47.6001565 L262.926233,47.6001565 Z" id="Fill-6" fill="#FFFFFE"></path>
            </g>
        </g>
    </g>
</svg>