<?xml version="1.0" encoding="UTF-8"?>
<svg width="337px" height="98px" viewBox="0 0 337 98" version="1.1" xmlns="http://www.w3.org/2000/svg" xmlns:xlink="http://www.w3.org/1999/xlink">
    <title>quench_logo</title>
    <defs>
        <polygon id="path-1" points="0.000189285714 0.794287805 51.5218679 0.794287805 51.5218679 76 0.000189285714 76"></polygon>
    </defs>
    <g id="Desktop" stroke="none" stroke-width="1" fill="none" fill-rule="evenodd">
        <g id="quench-desktop" transform="translate(-80.000000, -96.000000)">
            <g id="quench_logo" transform="translate(80.000000, 96.000000)">
                <path d="M265,56.953686 C261.860652,60.7476048 257.489552,62.637044 251.869567,62.637044 C247.321415,62.637044 243.647103,61.3059764 240.854244,58.6382009 C238.05377,55.9779457 236.658293,52.5449944 236.658293,48.337467 C236.658293,44.0133772 238.110884,40.4713836 241.010355,37.694566 C243.911729,34.9327886 247.719307,33.5471998 252.415955,33.5471998 C254.995589,33.5471998 257.247771,33.942008 259.16679,34.7184642 C261.08581,35.5099606 263.031482,36.92375 265,38.9523121 L265,24.5944539 C261.222883,22.8760982 257.023124,22 252.347418,22 C246.986348,22 242.125975,23.156224 237.78724,25.4555118 C233.448505,27.7604396 230.05976,30.9226653 227.641948,34.953469 C225.212714,38.9899129 224,43.3892042 224,48.1795437 C224,55.0905673 226.49206,61.1198525 231.478083,66.2692794 C236.467914,71.4149463 243.369149,74 252.162751,74 C256.985048,74 261.253343,73.1558625 265,71.4882678" id="Fill-1" fill="#000000"></path>
                <path d="M125.564909,41.8196413 C126.970009,38.7586057 128.491886,36.6207695 130.126775,35.4117732 C132.742973,33.4713625 135.786728,32.4992768 139.256158,32.4992768 C142.446827,32.4992768 145.247609,33.3717096 147.673573,35.0902517 C150.086352,36.8200752 151.709939,39.0650853 152.523616,41.8196413 L125.564909,41.8196413 Z M157.671255,29.4796066 C152.789192,24.4969627 146.437989,22 138.642133,22 C131.290785,22 125.186323,24.4969627 120.317444,29.4796066 C115.441032,34.4622505 113,40.7309806 113,48.2763957 C113,55.637547 115.444799,61.7652589 120.332512,66.6576511 C125.22211,71.5556841 131.546943,74 139.318314,74 C144.33599,74 148.651116,73.118166 152.295711,71.3450969 C155.942191,69.5682673 159.068821,66.8362742 161.673718,63.1378363 L158.539554,61.6674863 C152.218487,59.3566676 146.961605,61.2970784 146.929586,61.3102401 C144.595914,62.4910327 142.036221,63.0945907 139.229788,63.0945907 C135.345987,63.0945907 132.15155,62.0566966 129.648363,59.9752676 C127.141408,57.9013596 125.602579,55.1129592 125.01869,51.5912641 L164.96233,51.5912641 L165,49.2277987 C165,41.0487417 162.566502,34.4622505 157.671255,29.4796066 L157.671255,29.4796066 Z" id="Fill-3" fill="#000000"></path>
                <g id="Group-7" transform="translate(0.000000, 21.000000)">
                    <mask id="mask-2" fill="white">
                        <use xlink:href="#path-1"></use>
                    </mask>
                    <g id="Clip-6"></g>
                    <path d="M16.3450107,37.2547268 C13.7480107,34.5015073 12.4438321,30.987678 12.4438321,26.713239 C12.4438321,22.4801171 13.7196179,19.0094829 16.2711893,16.3032146 C18.8341179,13.5931902 22.038725,12.2409951 25.894475,12.2409951 C29.8581179,12.2409951 33.1232964,13.5687756 35.7032607,16.2318488 C38.2907964,18.898678 39.5779393,22.3768244 39.5779393,26.6775561 C39.5779393,31.064678 38.2907964,34.6198244 35.7032607,37.3204585 C33.1232964,40.0248488 29.869475,41.3883122 25.9512607,41.3883122 C22.144725,41.3883122 18.9476893,39.9985561 16.3450107,37.2547268 M39.025225,46.2411902 L39.025225,67.2340195 C39.7047607,69.8125805 42.0613679,75.0354341 50.128725,76.0007512 L51.5218679,76.0007512 L51.5218679,2.18592195 L39.025225,2.18592195 L39.025225,7.51019024 C36.8049036,5.27343415 34.3801536,3.59821463 31.7604393,2.47514146 C29.1426179,1.35958049 26.3411893,0.794287805 23.3542607,0.794287805 C16.8598679,0.794287805 11.3535464,3.23575122 6.81068929,8.1092878 C2.269725,12.9753122 0.000189285714,19.2235805 0.000189285714,26.865361 C0.000189285714,34.2066537 2.34733214,40.3628976 7.039725,45.3171902 C11.730225,50.2602146 17.2933321,52.739239 23.7195821,52.739239 C26.5815821,52.739239 29.2429393,52.2246537 31.6922964,51.2161415 C34.1549036,50.2001171 36.5910107,48.5455561 39.025225,46.2411902" id="Fill-5" fill="#000000" mask="url(#mask-2)"></path>
                </g>
                <path d="M94.4781784,33.0154941 L94.4781784,47.3487286 C94.4781784,52.0426644 94.2163188,55.1070502 93.6925996,56.541886 C92.9943074,58.4550004 91.9165085,59.9106309 90.4573055,60.8974349 C88.9981025,61.8918007 86.1537002,62.390874 84.0740038,62.390874 C81.9848197,62.390874 79.1537002,61.8880199 77.7267552,60.8823115 C76.3111954,59.8690414 75.2694497,58.4625621 74.6280835,56.64775 C73.9829222,54.8442805 73.6527514,51.6059752 73.6527514,46.9385054 L73.6527514,32.9682334 C72.43074,24.096449 63.2865275,23.1096449 61,23 L61,43.7020906 C61,51.6513455 61.487666,57.127919 62.4648956,60.1450441 C63.8406072,64.5062644 66.2182163,67.9014753 69.601518,70.3382386 C72.9848197,72.7750019 78.4857685,74 83.9601518,74 C88.9981025,74 94.2390892,72.9508118 97.5085389,70.8637779 C100.781784,68.776744 103.250474,65.7879754 104.939279,61.8880199 C106.313093,58.6894136 107,52.7440136 107,44.0631626 L107,23.0888502 C104.516129,23.2173994 95.7020873,24.3422048 94.4781784,33.0154941" id="Fill-8" fill="#000000"></path>
                <path d="M203.886955,38.5063314 C204.422643,40.468379 204.686715,44.4285971 204.686715,50.3964917 L204.686715,67.0967105 C204.935697,68.4921979 206.586145,74 217,74 L217,39.2516053 C217,33.4871399 215.560809,29.1428776 212.669225,26.1960039 C209.251383,22.7281989 205.071505,21 200.152227,21 C197.749175,21 195.404596,21.4657962 193.114717,22.410697 C190.821066,23.3498942 188.269002,25.0115507 185.439662,27.4051727 L185.439662,22.2947232 L173,22.2947232 L173,73.5874377 C173.162215,73.581734 173.313114,73.5779316 173.479101,73.5779316 C181.927509,73.5779316 184.600292,69.9504251 185.439662,67.8400832 L185.439662,52.2292571 C185.439662,47.0351544 185.626399,43.6529038 185.99044,42.0882089 C186.69023,39.0938049 187.942684,36.7439108 189.745917,35.0328228 C191.54349,33.3388456 193.706992,32.4985113 196.225104,32.4985113 C198.171689,32.4985113 199.799503,33.0023317 201.116089,34.0308857 C202.436447,35.0575385 203.356925,36.5480862 203.886955,38.5063314" id="Fill-10" fill="#000000"></path>
                <path d="M315.665508,26.5712047 C312.286266,23.1695686 308.129232,21.4678083 303.198181,21.4678083 C300.679796,21.4678083 298.184065,21.9917168 295.718539,23.0395338 C293.254902,24.0892353 290.802591,25.6590763 288.374823,27.7603639 L288.374823,0.0195975998 C277.863303,-0.504310895 276.243532,9.62709942 276,12.3182553 L276,74 C287.931179,74 288.374823,66.8273535 288.374823,66.8273535 L288.374823,52.3991397 C288.374823,47.0922105 288.550393,43.6886898 288.916634,42.1904623 C289.618913,39.3089656 290.872442,37.0342981 292.688549,35.3683445 C294.49144,33.692968 296.658686,32.8656449 299.188398,32.8656449 C301.132879,32.8656449 302.771528,33.3594004 304.091131,34.3676416 C305.414511,35.3683445 306.350882,36.8854176 306.898357,38.918861 C307.445832,40.9598427 307.719569,44.8363887 307.719569,50.582421 L307.719569,66.8631602 L307.730896,66.8273535 C307.730896,66.8273535 308.170764,73.9566551 320,74 L320,39.5596124 C320,33.8456176 318.546359,29.5186612 315.665508,26.5712047" id="Fill-12" fill="#000000"></path>
                <path d="M331.803103,67.4469413 L330.374889,67.4469413 L330.374889,69.2714464 L331.803103,69.2714464 C332.519172,69.2714464 332.942928,68.9222401 332.942928,68.3591939 C332.942928,67.7667202 332.519172,67.4469413 331.803103,67.4469413 M332.73105,70.0444088 L334.278937,72.220082 L332.974318,72.220082 L331.575531,70.2307829 L330.374889,70.2307829 L330.374889,72.220082 L329.282147,72.220082 L329.282147,66.4621009 L331.848225,66.4621009 C333.186196,66.4621009 334.067059,67.144819 334.067059,68.3003389 C334.067059,69.2420189 333.519708,69.8187979 332.73105,70.0444088 M331.514714,64.5453897 C328.703406,64.5453897 326.576779,66.779918 326.576779,69.5147138 C326.576779,72.2495095 328.687712,74.4526485 331.483324,74.4526485 C334.294632,74.4526485 336.421259,72.220082 336.421259,69.4852862 C336.421259,66.7504905 334.310326,64.5453897 331.514714,64.5453897 M331.483324,75 C328.399322,75 326,72.5241662 326,69.5147138 C326,66.5072231 328.430712,64 331.514714,64 C334.598716,64 337,66.4758338 337,69.4852862 C337,72.4927769 334.569288,75 331.483324,75" id="Fill-14" fill="#000000"></path>
            </g>
        </g>
    </g>
</svg>