<?xml version="1.0" encoding="UTF-8"?>
<svg width="145px" height="172px" viewBox="0 0 145 172" version="1.1" xmlns="http://www.w3.org/2000/svg" xmlns:xlink="http://www.w3.org/1999/xlink">
    <title>pavone_logo</title>
    <defs>
        <polygon id="path-1" points="0 0.763139933 144.704 0.763139933 144.704 127.609756 0 127.609756"></polygon>
    </defs>
    <g id="Desktop" stroke="none" stroke-width="1" fill="none" fill-rule="evenodd">
        <g id="pavone-desktop" transform="translate(-126.000000, -70.000000)">
            <g id="Header" transform="translate(0.000000, -11.000000)">
                <g id="pavone_logo" transform="translate(126.000000, 81.000000)">
                    <g id="Group-3" transform="translate(0.000000, 44.000000)">
                        <mask id="mask-2" fill="white">
                            <use xlink:href="#path-1"></use>
                        </mask>
                        <g id="Clip-2"></g>
                        <path d="M-0.000166666667,110.362552 C0.709833333,107.435814 1.264,104.460186 2.17066667,101.594767 C3.21483333,98.2968008 3.28816667,94.9590599 3.18233333,91.5815445 C3.14233333,90.3253342 2.934,89.0757529 2.8815,87.8195426 C2.85316667,87.1218321 2.94233333,86.4092062 3.06316667,85.7172962 C3.21983333,84.8182274 3.62233333,84.0799138 4.28816667,83.3681166 C5.8265,81.7241052 6.929,79.7486398 7.269,77.517955 C7.75733333,74.3111384 8.144,71.0802914 8.36983333,67.8461299 C8.529,65.5690415 8.38566667,63.2679227 8.30983333,60.9800621 C8.14983333,56.1383491 8.3415,51.3480114 10.3631667,46.8311232 C10.8756667,45.68595 11.5465,44.6087247 12.1765,43.51907 C12.4515,43.0417764 12.5123333,42.686292 12.154,42.1692239 C11.1756667,40.7564016 11.2265,39.1844815 11.679,37.5976459 C12.3648333,35.1954336 13.8523333,33.2580855 15.5473333,31.5278961 C20.1773333,26.8030206 25.754,23.5224555 32.1798333,21.9712512 C40.349,19.999929 48.399,20.4225328 56.1523333,24.0420095 C58.1356667,24.9684232 60.3231667,25.4556604 62.344,26.3141261 C64.854,27.380579 67.4848333,27.7924105 70.1523333,28.1139208 C71.7348333,28.3053354 73.294,28.1644675 74.8148333,27.7161761 C76.3915,27.2521406 77.9465,26.713528 79.5206667,26.2428635 C80.024,26.0920519 80.5581667,26.0406766 81.0815,25.9644422 C82.5865,25.7456826 83.9765,25.2907621 85.134,24.2441964 C85.6565,23.7710459 86.2306667,23.344299 86.8231667,22.9606411 C88.7631667,21.7052594 89.8815,19.9833564 90.5198333,17.7360988 C91.0115,16.0025949 92.054,14.4174165 92.9015,12.7924637 C93.739,11.1865695 94.9781667,9.93367374 96.6315,9.16884384 C97.324,8.84899081 98.1123333,8.71558061 98.8698333,8.55731137 C99.234,8.48107697 99.6273333,8.54405322 100.007333,8.54322458 C100.973167,8.54073868 101.8515,8.38495534 102.759833,7.9076617 C104.4015,7.0450529 106.104833,6.32911245 107.994,5.98854355 C109.9915,5.62808742 111.934,4.91960469 113.862333,4.2575255 C114.684,3.97496104 115.5515,3.56230092 116.1565,2.96651251 C118.363167,0.79217485 121.0215,0.370399747 123.828167,1.07971112 C125.9415,1.61335192 127.982333,2.49253342 129.985667,3.37420082 C131.614833,4.09096991 133.3965,7.53477605 132.553167,10.1250884 C132.413167,10.5576357 132.4965,11.1368514 132.663167,11.5793424 C133.322333,13.3277618 134.479,14.6925233 136.057333,15.7233449 C137.6765,16.7798543 138.425667,18.3111714 138.290667,20.2294609 C138.230667,21.0812974 138.0565,21.9256763 137.939,22.7733697 C137.805667,23.7470155 137.637333,24.7181755 137.569833,25.6951359 C137.548167,26.0149889 137.699833,26.4616231 137.934,26.6671245 C140.1115,28.5713272 141.847333,30.7746671 143.125667,33.3890098 C143.660667,34.4819791 144.429,35.462254 144.704,36.6836617 L144.704,38.0451086 C144.649,38.2796123 144.565667,38.5124587 144.543167,38.7494482 C144.3715,40.5020108 144.173167,42.2355147 142.380667,43.2141324 C142.253167,43.2837377 142.164,43.4246056 142.055667,43.5298423 C140.937333,44.6178397 139.809,45.6967222 138.702333,46.7963206 C137.694,47.79814 136.499833,48.2770909 135.0715,48.2116288 C134.123167,48.1677111 133.289,48.4486183 132.5765,49.1123548 C131.744833,49.8862997 130.878167,50.6246132 130.0165,51.3662414 C128.548167,52.6282521 126.968167,53.5994121 124.9065,53.5206918 C124.015667,53.4867178 123.6015,53.9333519 123.559,54.8150193 C123.529833,55.4149509 123.614,56.0198543 123.630667,56.6231004 C123.6615,57.6978397 123.8115,58.790809 123.674,59.8456611 C123.414,61.8368704 122.827333,63.7957631 122.673167,65.790287 C122.533167,67.6049971 122.708167,69.4578245 122.884,71.2799924 C123.248167,75.040337 123.029833,78.7169895 121.732333,82.3024922 C121.175667,83.8404384 120.628167,85.3933 120.244,86.9793069 C119.219,91.2086589 118.257333,95.4537548 117.329833,99.7054799 C117.057333,100.955061 116.897333,102.262647 117.552333,103.473282 C118.225667,104.717063 119.219833,105.663364 120.574,106.09674 C123.322333,106.97675 125.104,109.157717 127.247333,110.853932 C127.3815,110.959997 127.469,111.12821 127.564833,111.276536 C128.232333,112.315644 128.199,113.490648 127.278167,114.298567 C126.674833,114.828065 125.895667,115.299558 125.122333,115.468599 C122.372333,116.06936 119.573167,116.377612 116.749,116.243373 C115.574,116.187026 114.424833,115.908604 113.478167,115.166148 C112.330667,114.265422 111.169833,113.365524 110.134833,112.345475 C109.505667,111.726485 108.842333,110.940939 108.654833,110.125562 C108.309833,108.62159 107.254833,107.321462 107.463167,105.652592 C107.568167,104.806556 107.224833,103.892571 107.3915,103.069737 C107.637333,101.852473 107.584833,100.812536 106.744,99.841376 C105.982333,98.9613659 106.0115,97.9520887 106.2415,96.8524903 C106.829833,94.0434184 107.393167,91.2227456 107.295667,88.3266671 C107.288167,88.1087361 107.3115,87.8402585 107.198167,87.6811606 C106.0315,86.0454355 105.709,84.1221742 105.299,82.2320583 C105.063167,81.1399176 104.894,80.0336902 104.682333,78.8636579 C104.295667,79.103962 103.9815,79.2680317 103.7015,79.4785049 C102.089,80.6874831 100.235667,81.3288464 98.2948333,81.7688514 C97.6306667,81.9188343 96.9081667,81.9461793 96.3115,82.2337156 C93.2698333,83.7037137 90.0015,84.1619487 86.7073333,84.1312892 C84.5815,84.111402 82.4548333,83.5595312 80.339,83.1866455 C79.7956667,83.0905239 79.5265,83.1800165 79.2681667,83.6697396 C78.834,84.492574 78.3706667,85.3129224 77.814,86.0562078 C77.0181667,87.1185176 76.2606667,88.1543111 76.5973333,89.5870206 C76.6081667,89.6325955 76.589,89.6872854 76.5798333,89.7361748 C76.1765,91.9121698 75.844,94.1047374 75.3365,96.2567019 C75.0815,97.3405562 75.0231667,98.368892 75.4998333,99.3350801 C76.4815,101.327118 76.4306667,103.492341 76.6723333,105.602045 C76.9573333,108.089607 76.5273333,110.6244 77.309,113.094561 C77.7673333,114.543014 78.3523333,115.867173 79.4015,116.974229 C80.4115,118.04151 81.349,119.147738 81.9381667,120.526586 C82.154,121.031225 82.1131667,121.385052 81.899,121.855716 C81.3598333,123.043978 80.7565,124.230583 80.4398333,125.483479 C80.169,126.556561 79.554,127.053742 78.6073333,127.353708 C78.3706667,127.429114 78.1398333,127.523578 77.9056667,127.609756 L75.7756667,127.609756 C75.6881667,127.566667 75.6048333,127.502034 75.5115,127.484632 C73.7756667,127.159807 71.999,126.970879 70.5056667,125.879567 C70.3815,125.788417 70.1206667,125.902768 69.9315,125.87128 C69.4331667,125.785931 68.8348333,125.813276 68.4681667,125.539826 C67.8348333,125.068333 67.1956667,124.484146 66.8256667,123.804665 C65.7823333,121.884718 65.4015,119.88108 66.5865,117.833523 C66.7498333,117.550959 66.8056667,117.17973 66.8215,116.84579 C66.8881667,115.413081 66.8281667,113.96877 66.9965,112.550148 C67.1281667,111.43812 66.9373333,110.46696 66.4406667,109.499114 C66.2031667,109.035908 65.9623333,108.540384 65.8873333,108.035745 C65.664,106.517686 65.5365,104.985541 65.344,103.461681 C64.8606667,99.6400177 62.8948333,96.2898473 61.8256667,92.6479975 C60.8731667,89.402235 60.1665,86.1722167 60.4231667,82.7731568 C60.554,81.0429674 60.6106667,79.3061489 60.6756667,77.5709876 C60.6848333,77.3099677 60.639,76.9577979 60.4723333,76.7937282 C59.6181667,75.9493494 58.6215,75.3088147 57.404,75.1381159 C57.2256667,75.1132569 56.899,75.3775914 56.814,75.5797783 C55.754,78.1021425 54.8931667,80.7247716 53.6256667,83.1369275 C52.8681667,84.5770947 51.9873333,85.9600862 51.4315,87.4972037 C51.1706667,88.2172873 50.994,88.9928895 50.9373333,89.7552334 C50.869,90.6799899 50.9898333,91.6171758 50.989,92.5493899 C50.9873333,94.5604865 51.914,96.2069838 52.939,97.8559671 C53.5048333,98.7649794 54.1881667,99.4701476 55.089,100.013732 C56.0806667,100.611178 57.0598333,101.230168 58.0431667,101.8417 C58.6015,102.188898 59.1923333,102.493836 59.7065,102.896552 C60.6106667,103.604207 61.5973333,104.267114 62.3098333,105.141324 C63.2406667,106.282354 63.1173333,107.758153 62.5015,108.948072 C62.0515,109.81731 60.874,109.942434 59.8648333,109.983866 C59.7381667,109.988838 59.6106667,109.983037 59.484,109.985523 C58.2723333,110.013697 57.0581667,110.007067 55.8481667,110.07833 C53.7248333,110.204283 51.929,109.284498 50.069,108.466635 C48.8448333,107.928023 48.2981667,106.980893 47.839,105.862236 C47.4881667,105.008742 47.0398333,104.195023 46.6848333,103.342358 C46.129,102.006599 45.6165,100.652609 45.0856667,99.3060779 C44.869,98.7575217 44.6581667,98.2056509 44.4315,97.6604092 C44.3173333,97.3844739 44.164,97.1234539 44.0423333,96.8491758 C43.0398333,94.5952892 42.1406667,92.28837 41.004,90.1040887 C40.2681667,88.6896091 40.2356667,87.4632296 41.0131667,86.1208413 C42.0073333,84.4030814 43.1115,82.7491264 43.5565,80.7529452 C43.9648333,78.922491 44.3073333,77.0994945 44.1148333,75.2242939 C44.079,74.8654951 43.8698333,74.42549 43.5931667,74.2075591 C42.3556667,73.2322559 41.4156667,72.0315641 40.6631667,70.6726031 C39.5048333,68.578643 38.8206667,66.3181273 38.354,63.9880063 C38.2756667,63.5944048 38.1631667,63.3565866 37.7215,63.285324 C37.3265,63.2215192 36.9523333,63.0408768 36.5681667,62.913267 C35.1165,62.4301729 33.9256667,62.7574837 33.0648333,64.0526398 C31.8365,65.8996668 30.519,67.6978042 29.4265,69.6210656 C28.494,71.2609338 27.3923333,72.7383896 26.1515,74.1437542 C23.7623333,76.8517327 21.4298333,79.6094292 19.0298333,82.3082927 C17.689,83.816408 16.2623333,85.2499462 14.8706667,86.7141438 C14.3531667,87.2593855 14.1081667,87.8932911 13.9248333,88.6357479 C13.5765,90.0435984 13.1965,91.489566 12.5223333,92.7582059 C11.689,94.3268115 11.2581667,95.9169617 11.239,97.6645524 C11.2181667,99.6242737 11.0148333,101.59311 11.154,103.539573 C11.2631667,105.072547 11.8181667,106.569062 12.0906667,108.096236 C12.3873333,109.754334 12.4481667,111.402488 11.434,112.907289 C10.779,113.879278 9.8665,114.432806 8.73233333,114.238077 C6.6665,113.88425 4.61233333,113.433472 2.58066667,112.913918 C1.39233333,112.609809 0.492333333,111.83255 -0.000166666667,110.665003 L-0.000166666667,110.362552 Z" id="Fill-1" fill="#000000" mask="url(#mask-2)"></path>
                    </g>
                    <path d="M72.4808524,16.0424715 C70.3333214,17.6649638 68.2128223,19.2678798 65.9203704,21 C66.7898952,18.2013573 67.5993492,15.5984786 68.4200665,12.9580133 C66.3078271,11.350399 64.2098545,9.75374748 62,8.07174286 C62.307112,8.04746812 62.4933314,8.0192781 62.6795509,8.0192781 C64.9171881,8.01614587 67.1548253,8.00361697 69.3924625,8.02945783 C69.8407409,8.03415616 70.0187006,7.87754493 70.1508564,7.44216571 C70.8882254,5.01938996 71.6578825,2.60836006 72.477098,0 C73.3503772,2.78298158 74.1688418,5.38977552 74.9993206,8.03493922 L83,8.03493922 C81.975042,8.81721232 81.1017628,9.48594228 80.2262309,10.15154 C79.1381986,10.9784473 78.058426,11.8171005 76.9523724,12.6173838 C76.6069654,12.8679618 76.5536525,13.1060109 76.681303,13.5030204 C77.3946437,15.7347304 78.0869596,17.973488 78.7852827,20.2106794 C78.8476061,20.4095757 78.9031716,20.6116041 79.0135517,20.9890372 C76.7511353,19.2757103 74.6238781,17.6649638 72.4808524,16.0424715" id="Fill-4" fill="#000000"></path>
                    <path d="M108.504504,21.0409054 C106.355258,22.6657469 104.233789,24.270229 101.944162,26 C102.81347,23.2029234 103.624973,20.589082 104.443233,17.9564472 C102.31801,16.3394362 100.224315,14.7459169 98,13.0537326 C98.3700937,13.0325901 98.5840423,13.0114475 98.797991,13.0106645 C100.990026,13.0083153 103.182813,12.9910881 105.374097,13.0231934 C105.859048,13.0302409 106.049725,12.8493549 106.187853,12.3975315 C106.926539,9.98102021 107.691499,7.57390559 108.499249,5 C109.007471,6.61779402 109.468399,8.07975986 109.927075,9.54407488 C110.209337,10.4477217 110.522378,11.3435379 110.756595,12.2612797 C110.903732,12.8399582 111.157468,13.0372884 111.746765,13.0255425 C113.893008,12.9840406 116.040001,13.0083153 118.185494,13.0106645 C118.403196,13.0114475 118.620147,13.0310239 119,13.0506003 C117.864195,13.9174435 116.860513,14.6848385 115.85533,15.4491013 C114.914707,16.1640316 113.986094,16.8969722 113.02295,17.577448 C112.630335,17.8546499 112.567277,18.1005295 112.718167,18.5664479 C113.463609,20.8623686 114.167763,23.1723842 114.885429,25.4784846 C114.919961,25.5873294 114.946236,25.6993064 115.022807,25.9835558 C112.772217,24.2772765 110.646994,22.6657469 108.504504,21.0409054" id="Fill-6" fill="#000000"></path>
                    <path d="M24.9358576,26 C25.8083235,23.1994258 26.6214738,20.5875401 27.4413815,17.954515 C25.316529,16.3385281 23.2224606,14.7452464 21,13.0556633 C21.3408774,13.032958 21.5308377,13.0094698 21.7215489,13.0086869 C23.9357503,13.0063381 26.1514534,12.9898964 28.3656548,13.020431 C28.845436,13.0274774 29.0444063,12.8591455 29.1840609,12.4019089 C29.9213772,9.98497502 30.6872251,7.57743643 31.4943688,5 C31.9989274,6.59797927 32.4554328,8.03623891 32.9074332,9.47684736 C33.2047624,10.424987 33.5246165,11.367646 33.7791483,12.3283126 C33.9165505,12.8497502 34.1425507,13.0306092 34.6756409,13.0219969 C36.8440416,12.9867646 39.013944,13.0063381 41.1830956,13.0086869 C41.399335,13.0094698 41.6148236,13.0290433 42,13.0486168 C40.860989,13.9168966 39.8578784,14.6841772 38.8525153,15.448326 C37.9117237,16.1631497 36.9836962,16.8967639 36.0203797,17.5763552 C35.6254425,17.8542987 35.5683793,18.1017076 35.7177947,18.5652077 C36.4603668,20.8607859 37.1623941,23.17124 37.8786871,25.4762136 C37.9124745,25.5850421 37.9432586,25.6946536 38.0273517,25.9827753 C35.7711037,24.2736187 33.6455004,22.6646782 31.4988738,21.040079 C29.3514963,22.6623294 27.2311488,24.2657893 24.9358576,26" id="Fill-8" fill="#000000"></path>
                </g>
            </g>
        </g>
    </g>
</svg>