<?xml version="1.0" encoding="UTF-8"?>
<svg width="155px" height="205px" viewBox="0 0 155 205" version="1.1" xmlns="http://www.w3.org/2000/svg" xmlns:xlink="http://www.w3.org/1999/xlink">
    <title>mst</title>
    <defs>
        <polygon id="path-1" points="0 0 155 0 155 45 0 45"></polygon>
        <polygon id="path-3" points="0 0 39 0 39 22 0 22"></polygon>
    </defs>
    <g id="Agencies" stroke="none" stroke-width="1" fill="none" fill-rule="evenodd">
        <g id="Market-Street-Trust" transform="translate(-367.000000, -210.000000)">
            <g id="mst" transform="translate(367.000000, 210.000000)">
                <path d="M128.497626,132.316752 C128.497626,162.293869 105.844523,178.529786 78.0002855,178.529786 L77.9997145,178.529786 C50.155477,178.529786 27.5023736,162.293869 27.5023736,132.316752 L27.5023736,73.6832481 C27.5023736,43.7061305 50.155477,27.4707854 78.0002855,27.4707854 C105.844523,27.4707854 128.497626,43.7061305 128.497626,73.6832481 L128.497626,132.316752 Z M77.9997145,22 C47.1213192,22 22,40.3023781 22,73.5456362 L22,132.454364 C22,165.697622 47.1213192,184 78.0002855,184 C108.878681,184 134,165.697622 134,132.454364 L134,73.5456362 C134,40.3023781 108.878681,22 77.9997145,22 L77.9997145,22 Z" id="Fill-1" fill="#FFFFFE"></path>
                <path d="M86.7663288,101.139846 L80.5514774,95.1064006 L80.5514774,77.1411554 C80.5514774,76.8430456 80.5663331,76.5449359 80.5960447,76.2485361 L81,72.2026794 L80.5514774,72.2026794 L80.5514774,72.2003994 L75.341104,72.2003994 L75.341104,72.2026794 L74.965139,72.2026794 L75.2965368,75.5257767 C75.3262483,75.8227465 75.341104,76.1202862 75.341104,76.418396 L75.341104,90.0482248 L71.9385628,86.7450775 C70.4198467,85.2704887 69.3296622,83.72864 68.6960068,82.1628513 C67.7583796,79.8418132 67.6795298,77.8433948 67.6795298,76.1516362 C67.6795298,70.6676707 72.1888253,66.3704442 77.9465764,66.3704442 C84.2151372,66.3704442 89.315235,71.0267704 89.315235,76.7484257 L89.315235,84.3681795 C89.315235,86.156268 89.2266718,87.9426465 89.0495454,89.7216151 L89.0432603,89.779185 L95.0775571,89.779185 L94.7918693,86.9155074 C94.6147429,85.1365388 94.5261797,83.3495903 94.5261797,81.5615018 L94.5261797,76.7484257 C94.5261797,68.9947221 88.4576004,62.5651273 80.5514774,61.3857983 L80.5514774,43.2415732 C89.4500796,43.7391828 98.1772693,46.7630303 104.963496,52.3701157 L108.286616,48.368149 C91.5578839,34.5433803 64.3381257,34.5445203 47.6076793,48.368149 L50.9296565,52.3701157 C57.7164549,46.7624603 66.4436445,43.7397528 75.341104,43.2415732 L75.341104,61.3932083 C67.9475049,62.5617073 62.4697278,68.6162424 62.4697278,76.1516362 C62.4697278,78.4920543 62.638855,81.0741522 63.8638841,84.1054097 C64.7695143,86.3466478 66.2625185,88.4887061 68.3051859,90.4705944 L82.976395,104.712033 L77.9465764,109.454999 L38.3113997,72.0846895 L38.3113997,118.528821 L38,121.643869 L44.0348682,121.643869 L43.5212016,116.497913 L43.5212016,84.1504396 L72.9310421,111.878067 C72.9327562,111.880347 72.9321849,111.881487 72.933899,111.884907 C72.933899,111.884907 73.6629742,112.572896 74.0657939,112.951946 C74.4674709,113.330996 75.336533,114.125575 75.336533,115.751784 C75.336533,115.775154 75.3399613,115.789404 75.341104,115.811064 L75.341104,123.026118 L74.9297137,127.148924 L80.9640105,127.148924 L80.5514774,123.011868 L80.5514774,115.827024 C80.5526201,115.799664 80.5571911,115.781994 80.5571911,115.751784 C80.5571911,114.125575 81.4262533,113.330996 81.8285016,112.951946 C82.2301786,112.572896 82.9598252,111.884907 82.9598252,111.884907 C82.9621107,111.880917 82.9609679,111.879207 82.9632534,111.875787 L86.5326363,108.51051 C88.3158992,110.933578 89.315235,113.772175 89.315235,116.735603 L89.315235,123.377807 C89.315235,129.099463 84.2151372,133.753509 77.9465764,133.753509 C71.6774442,133.753509 66.576775,129.099463 66.576775,123.377807 L66.576775,119.320551 C66.576775,117.532462 66.6659096,115.745514 66.8436074,113.966545 L67.2749959,109.643099 L61.2401277,109.643099 L61.3949705,111.194637 L61.3664017,111.170697 L61.3664017,123.377807 C61.3664017,131.129801 67.434981,137.559396 75.341104,138.738725 L75.341104,162.492315 C75.341104,164.080904 75.2622542,165.668923 75.1039832,167.250101 L74.9297137,169 L80.9640105,169 L80.7885982,167.236991 C80.6303272,165.656953 80.5514774,164.069504 80.5514774,162.480915 L80.5514774,138.738725 C88.4576004,137.559396 94.5261797,131.129801 94.5261797,123.377807 L94.5261797,116.735603 C94.5261797,112.442936 93.0566019,108.33153 90.3591381,104.902983 C90.3585667,104.902983 112.35481,84.1242197 112.35481,84.1242197 L112.371951,117.563812 L111.965132,121.643869 L118,121.643869 L117.582324,117.465772 L117.582324,72.0858295 L86.7663288,101.139846" id="Fill-2" fill="#FFFFFE"></path>
                <path d="M55.276097,153.4857 L50.4024082,153.418913 L50.4024082,142.581087 L55.276097,142.514891 C58.2100577,142.514891 60.5970184,144.975374 60.5970184,148.000296 C60.5970184,151.024626 58.2100577,153.4857 55.276097,153.4857 Z M55.2686431,139 L47,139.109342 L47,156.891249 L55.2686431,157 C60.0832743,157 64,152.962633 64,148.000296 C64,143.037367 60.0832743,139 55.2686431,139 L55.2686431,139 Z" id="Fill-3" fill="#FFFFFE"></path>
                <path d="M104.955821,151.977585 C103.943284,152.996643 102.540299,153.632369 100.991642,153.653106 C97.8835821,153.615187 95.3695522,151.094796 95.3695522,147.998519 C95.3695522,144.905204 97.8835821,142.385405 100.991642,142.348079 C102.537313,142.368816 103.935522,142.995655 104.949851,144.011158 L104.968955,143.992792 C105.475224,142.985583 106.167164,142.08739 106.998209,141.337909 C106.524776,140.912511 106.007761,140.532142 105.451343,140.212205 C104.242388,139.514269 102.857313,139.088279 101.378507,139.013034 L101.067463,139 C101.041791,139 101.016716,139 100.991642,139.004147 C100.96597,139 100.936716,139 100.911045,139 L100.6,139.013034 C99.3110448,139.079392 98.0901493,139.41414 96.9952239,139.960995 C96.8352239,140.04098 96.6829851,140.120371 96.5313433,140.208058 C95.1802985,140.989533 94.0423881,142.105164 93.2513433,143.442382 C92.4549254,144.780192 92,146.338995 92,147.998519 C92,151.324677 93.8238806,154.233732 96.5313433,155.792535 C97.7402985,156.490471 99.1259701,156.912906 100.6,156.98815 L100.911045,157 L101.067463,157 L101.378507,156.98815 C102.857313,156.912906 104.242388,156.486324 105.451343,155.788387 C106.008358,155.468451 106.525373,155.090451 107,154.662684 C106.160597,153.906093 105.463284,152.996643 104.955821,151.977585" id="Fill-4" fill="#FFFFFE"></path>
                <path d="M18,95.5895621 C18,95.7854791 17.8541019,95.9324169 17.659954,95.9324169 L9.37822679,96.0782022 L17.659954,98.570382 C17.829977,98.6199374 18,98.840056 18,99.0348205 L18,100.989381 C18,101.2095 17.8058521,101.405417 17.6105555,101.45382 L9.37822679,103.945999 L17.659954,104.068736 C17.8541019,104.068736 18,104.214521 18,104.410438 L18,106.658298 C18,106.853638 17.8541019,107 17.659954,107 L1.34119476,106.340797 C1.17059738,106.340797 1,106.218061 1,106.047498 L1,103.628499 C1,103.432581 1.09764833,103.335199 1.34119476,103.261442 L13.2749696,100.012677 L1.34119476,96.7385578 C1.09764833,96.665377 1,96.5674185 1,96.3715015 L1,93.9778564 C1,93.8309187 1.17059738,93.6603556 1.34119476,93.6603556 L17.659954,93 C17.8541019,93 18,93.1711393 18,93.3417023 L18,95.5895621" id="Fill-5" fill="#FFFFFE"></path>
                <path d="M5.20784128,82.9999792 L11.4089007,84.9356935 L11.4089007,81.0399239 L5.20784128,82.9999792 Z M18,78.6137394 C18,78.8206375 17.830218,79.0530936 17.6351981,79.1042096 L14.3760713,80.110708 L14.3760713,85.8643009 L17.6351981,86.8701908 C17.830218,86.9480818 18,87.1549799 18,87.360661 L18,89.6055054 C18,89.8124035 17.830218,90.0448596 17.6351981,89.9925266 L1.36480194,84.883969 C1.21853701,84.832853 1,84.7287954 1,84.5225058 L1,81.4780611 C1,81.27238 1.12160065,81.1683225 1.34071125,81.0904314 L17.6351981,76.0080403 C17.830218,75.9563158 18,76.1632139 18,76.368895 L18,78.6137394 L18,78.6137394 Z" id="Fill-6" fill="#FFFFFE"></path>
                <path d="M9.03648153,64.2985673 C8.97091137,64.2233652 8.92259652,64.2190679 8.87370648,64.2142335 L5.21040513,63.8666921 C5.1615151,63.8623948 5.11089954,63.8801211 5.0844414,63.9005331 L4.65420912,64.2491487 C4.59841696,64.3119963 4.57195883,64.3334826 4.56390635,64.4011645 L4.1750868,67.9813239 L9.05143613,68.4432799 L9.44083086,64.8636577 C9.44600745,64.8179993 9.45060886,64.772878 9.38561388,64.6976758 L9.03648153,64.2985673 Z M18.7627221,64.1218423 C18.7437412,64.3034017 18.5556584,64.4462858 18.3790791,64.497853 L12.2390662,66.1818439 L11.9629813,68.7199164 L17.8596944,69.2790981 C18.0529538,69.2968243 18.1840941,69.4472286 18.163963,69.6282509 L17.9373433,71.7124247 C17.9183624,71.8945214 17.7573129,72.0164563 17.5629031,71.9981929 L1.30783021,70.4560117 C1.11284526,70.4377483 0.982855289,70.2878812 1.00183612,70.1068589 L1.78580217,62.9014188 C1.78580217,62.9014188 1.77199793,62.5796611 2.09179625,62.3352541 L3.58955677,61.1948672 C3.90993027,60.9504603 4.24640873,61.0052504 4.24640873,61.0052504 L10.4094287,61.5902157 C10.6768859,61.6154621 10.9115581,61.7062418 11.0864118,61.9060647 L12.3719321,63.3789525 L18.6626413,61.662732 C18.8403709,61.6111648 19.0267282,61.6971102 18.996819,61.9694494 L18.7627221,64.1218423 L18.7627221,64.1218423 Z" id="Fill-7" fill="#FFFFFE"></path>
                <path d="M23.0991126,49.2421357 C23.032211,49.4268598 22.8015762,49.5550122 22.6126083,49.5665574 L14.4957905,50.2084736 L16.1642246,52.5504288 L20.952977,54.2083275 C21.1401843,54.2729809 21.2311471,54.4600141 21.166006,54.6447381 L20.4054395,56.7696425 C20.3397115,56.9537893 20.1495699,57.0444195 19.9611888,56.9786116 L4.23459751,51.5344463 C4.04621645,51.4697928 3.95525363,51.2827597 4.02156846,51.0974583 L4.782135,48.9731313 C4.84727612,48.7889844 5.03800461,48.6989314 5.22579882,48.7641621 L11.2821621,50.8602033 L6.67181423,44.7233226 C6.52451315,44.5432167 6.42533433,44.3786968 6.4910623,44.1939727 L7.51571445,41.3313265 C7.62310927,41.0305726 7.89306344,40.8654754 8.08555251,41.139098 L12.5902661,47.4988021 L23.5163679,46.3771805 C23.8403129,46.3592854 24.0815111,46.4943649 23.9741163,46.7945415 L23.0991126,49.2421357" id="Fill-8" fill="#FFFFFE"></path>
                <path d="M25.0319666,44.8484004 C24.9237581,45.0078149 24.7232876,45.0470992 24.5626834,44.9394944 L11.1516651,35.884747 C10.9916305,35.7771422 10.9529032,35.5755966 11.0611117,35.4150434 L15.9675124,28.1520019 C16.0757209,27.992018 16.2773304,27.9527337 16.4379345,28.0609079 L18.2786179,29.3043415 C18.4187194,29.3988515 18.4779493,29.6134919 18.3697408,29.7734758 L14.8956788,34.9157342 L18.2780483,37.1999172 L21.0225573,33.1382618 C21.1170974,32.9982047 21.3312363,32.9389936 21.4918404,33.0465984 L23.3336628,34.2906014 C23.4936975,34.3982062 23.5193258,34.6196786 23.4242162,34.7597357 L20.6797073,38.8213911 L24.0632158,41.1055741 L27.5378473,35.9633156 C27.6449168,35.8027624 27.8465263,35.7640474 28.006561,35.8722216 L29.8478138,37.1156552 C30.0078485,37.2238294 30.0471452,37.4248056 29.9395063,37.5847895 L25.0319666,44.8484004" id="Fill-9" fill="#FFFFFE"></path>
                <path d="M36.1387699,31.9281299 C36.0284321,32.0250889 35.8382143,32.0308603 35.7255778,31.9027359 L26.6112169,21.5067726 L24.0510354,23.7708799 C23.9050677,23.9007356 23.6987591,23.8868844 23.569457,23.7397145 L22.0890917,22.0504354 C21.9592149,21.9032655 21.9730071,21.6966506 22.1195495,21.5667949 L29.4524149,15.0820869 C29.5811423,14.9695453 29.805266,14.9660825 29.9334187,15.1132523 L31.415508,16.8025314 C31.5442355,16.9497013 31.5126283,17.1730532 31.3844755,17.286172 L28.8059044,19.5658619 L37.9202654,29.9618252 C38.0329019,30.0899496 38.0225577,30.2630906 37.9122199,30.3600495 L36.1387699,31.9281299" id="Fill-10" fill="#FFFFFE"></path>
                <path d="M59.0245591,19.495784 C58.8980523,19.7394891 58.6738173,19.8624752 58.4819586,19.9253852 L52.2741285,21.9317023 C51.9131942,22.0484541 51.8160657,22.0042471 51.557656,21.8840948 L49.7260044,21.0543636 C49.4352184,20.9194757 49.3536785,20.7681517 49.2961208,20.6088932 L48.4561392,18.2891599 C48.3997807,18.1299014 48.4861171,17.9236021 48.6785754,17.8618257 L50.8921459,17.1460126 C51.0840047,17.0836694 51.2860559,17.1958871 51.3442131,17.3551456 L51.9359775,18.9930712 L56.2426071,17.5999843 C56.2911713,17.5852486 56.3073594,17.5540771 56.3385365,17.4928674 L56.6161321,16.9969557 C56.6712915,16.9283782 56.6467096,16.8603674 56.6305215,16.8144601 L55.6676304,14.1535396 C55.6514423,14.1076323 55.602878,14.0475561 55.5381257,14.0175181 L55.0213062,13.7777802 C54.9571534,13.7488756 54.9001953,13.7415078 54.8276487,13.764178 L49.8237324,15.3822671 C49.727803,15.4134387 49.4705924,15.4463106 49.180406,15.3108558 L47.3475553,14.4811247 C47.0891455,14.3615391 46.9668356,14.1722425 46.9014837,13.9903138 L45.0500466,8.8730716 C44.9918894,8.7138131 44.9583141,8.47124142 45.1004095,8.19579789 L45.9865572,6.4870278 C46.081887,6.30339878 46.1448407,6.18154618 46.5297573,6.05685981 L52.7375873,4.05054269 C52.9300457,3.98763275 53.2196325,3.97063006 53.4456661,4.07491321 L55.2539349,4.91371246 C55.6172674,5.10074202 55.6664312,5.23733027 55.7323827,5.41869227 L56.5957471,7.80756986 C56.6622981,7.98893186 56.5675679,8.17199413 56.37451,8.23490407 L54.1609395,8.9495837 C53.9690808,9.01249364 53.7742242,8.92294615 53.7088723,8.74045064 L53.0751389,6.98917384 L48.8404563,8.35845693 C48.7685092,8.38226069 48.7289384,8.42023336 48.6731794,8.48937762 L48.3961833,8.98528934 C48.3398248,9.05386685 48.3650063,9.1218776 48.3811944,9.16778485 L49.3362913,11.8060352 C49.3524793,11.8513757 49.400444,11.9114518 49.4651964,11.9420567 L50.0143921,12.1965302 C50.0791444,12.2265683 50.1600848,12.2260016 50.2320318,12.2021978 L55.1154369,10.6226481 C55.3804418,10.5382015 55.6298582,10.5586047 55.8235156,10.6481522 L57.6317844,11.4858179 C57.8979885,11.6286405 58.0364865,11.7873322 58.1102322,11.9919312 L59.953875,17.0865031 C60.0276207,17.2911022 60.0144304,17.549543 59.9035121,17.7632101 L59.0245591,19.495784" id="Fill-11" fill="#FFFFFE"></path>
                <g id="Group-15" transform="translate(61.000000, 0.000000)" fill="#FFFFFE">
                    <path d="M5.99347548,17.9978654 C5.84952018,18.0164128 5.69196281,17.9126635 5.6715597,17.7422596 L3.98830291,3.94649925 L0.652393991,4.37192939 C0.460831433,4.3962728 0.300440298,4.26818008 0.276636666,4.07401237 L0.0028949051,1.83152028 C-0.0209087263,1.63677297 0.104343715,1.47216513 0.29533952,1.44782171 L9.85249753,0.228332605 C10.019123,0.207466822 10.2038845,0.332081916 10.2276881,0.527408831 L10.5008631,2.76932132 C10.5246667,2.96464823 10.3756107,3.1315745 10.209552,3.15359949 L6.84870595,3.58192765 L8.53082924,17.377688 C8.55236586,17.5480919 8.44751653,17.6848787 8.30526149,17.7034261 L5.99347548,17.9978654" id="Fill-12"></path>
                    <path d="M23.7447502,7.7782685 C23.8201284,7.70871589 23.8229622,7.65886985 23.8252292,7.61018302 L24.0156582,3.90708611 C24.018492,3.85839928 23.9975221,3.80681443 23.9742852,3.78189141 L23.5871929,3.36747377 C23.518049,3.3141501 23.4942453,3.28806787 23.4228345,3.28459024 L19.6340898,3.08056925 L19.3796176,8.01011054 L23.1689291,8.21413153 C23.2165363,8.21702955 23.2647103,8.21934797 23.3400885,8.14921576 L23.7447502,7.7782685 Z M24.3953828,17.5521491 C24.2032535,17.5422958 24.0439959,17.361459 23.981653,17.1852591 L21.9135709,11.0982465 L19.2277278,10.9527656 L18.9211144,16.9128447 C18.9109128,17.1093308 18.7595897,17.2490157 18.5674604,17.2380032 L16.3616572,17.1191841 C16.1695279,17.1093308 16.0329404,16.9545763 16.0437087,16.7580901 L16.8898711,0.32570626 C16.8995059,0.12979974 17.050829,-0.00988508677 17.2429583,0.000547804837 L24.8691884,0.411487813 C24.8691884,0.411487813 25.2081068,0.380189138 25.4807151,0.690277861 L26.7525091,2.13639256 C27.0251173,2.44590168 26.9837444,2.78786868 26.9837444,2.78786868 L26.6623953,9.01688458 C26.6487933,9.28698055 26.564347,9.52867587 26.3620162,9.7141495 L24.872589,11.0849155 L26.9797771,17.3226255 C27.0432534,17.4982458 26.961641,17.6906747 26.6731637,17.6750254 L24.3953828,17.5521491 L24.3953828,17.5521491 Z" id="Fill-14"></path>
                </g>
                <path d="M91.2736499,18.7891556 C91.0731923,18.7394342 90.9620294,18.5598523 91.01184,18.3674013 L95.2287409,2.26293584 C95.2785516,2.07048481 95.4662529,1.96343759 95.6654957,2.0114041 L104.726183,4.21084437 C104.926034,4.2599808 105.038411,4.44014772 104.987993,4.63201378 L104.408488,6.84432312 C104.365359,7.01162097 104.170369,7.14440632 103.971126,7.09526989 L97.5564799,5.53811298 L96.4928393,9.60005798 L101.560167,10.8302236 C101.733897,10.8729255 101.87118,11.059527 101.821369,11.251978 L101.242472,13.4625325 C101.191446,13.6549835 100.978839,13.7573511 100.804502,13.7152341 L95.737782,12.4844835 L94.6741413,16.5470135 L101.088787,18.1041704 C101.28803,18.1521369 101.401015,18.3328888 101.350597,18.5253398 L100.772307,20.7370642 C100.721282,20.9295152 100.534188,21.0365624 100.334338,20.9885959 L91.2736499,18.7891556" id="Fill-16" fill="#FFFFFE"></path>
                <path d="M105.191944,22.053089 C105.017278,21.9673818 104.950765,21.7738311 105.038677,21.6012814 L112.390872,7.18828119 C112.478205,7.01629918 112.676006,6.95159308 112.851251,7.03843548 L120.807839,10.946911 C120.983662,11.0337534 121.049018,11.2261689 120.961106,11.3987186 L119.952435,13.3779306 C119.875512,13.5283439 119.666143,13.6146187 119.492055,13.5283439 L113.857609,10.7613067 L112.002788,14.3967679 L116.453318,16.5825854 C116.606585,16.6580759 116.693918,16.8624109 116.606585,17.0343929 L115.596757,19.013605 C115.509424,19.1850194 115.290223,19.2395088 115.136377,19.1640183 L110.687004,16.9782008 L108.832761,20.613662 L114.46605,23.3806992 C114.641295,23.466974 114.706651,23.6610923 114.618739,23.8325067 L113.610068,25.8117188 C113.521578,25.9837008 113.324933,26.0484069 113.14911,25.9615645 L105.191944,22.053089" id="Fill-17" fill="#FFFFFE"></path>
                <path d="M118.101582,29.4024592 C117.989915,29.3071588 117.957514,29.1194283 118.06976,28.9902559 L127.10268,18.5221279 L124.49209,16.304382 C124.343393,16.1780801 124.327192,15.9719784 124.45506,15.8244349 L125.923518,14.1222302 C126.051386,13.9746867 126.25852,13.9586119 126.408375,14.0854879 L133.882578,20.435027 C134.013339,20.5464023 134.047476,20.7680046 133.920186,20.9155482 L132.452308,22.6171787 C132.32444,22.7652964 132.098212,22.7658705 131.967451,22.6550693 L129.339503,20.4218227 L120.306582,30.8905248 C120.194915,31.0196972 120.021917,31.0334756 119.909671,30.937601 L118.101582,29.4024592" id="Fill-18" fill="#FFFFFE"></path>
                <path d="M132.02887,46.6129913 C131.963907,46.4749131 132.008749,46.279908 132.161669,46.2005736 L144.536703,39.7872048 L143.030497,36.5635634 C142.944263,36.3788536 143.011525,36.1729475 143.186291,36.0821066 L145.197249,35.0392528 C145.372014,34.9490175 145.568626,35.0186622 145.654284,35.2039777 L149.967092,44.439471 C150.042977,44.5999566 149.986064,44.8294813 149.812447,44.9203222 L147.80034,45.9625704 C147.625574,46.0528057 147.41919,45.9595423 147.343879,45.7990567 L145.827326,42.5511911 L133.452867,48.9645599 C133.299372,49.0432887 133.136104,48.9851505 133.071716,48.8464667 L132.02887,46.6129913" id="Fill-19" fill="#FFFFFE"></path>
                <path d="M146.740368,61.0364292 C146.825681,61.0945448 146.872575,61.0837604 146.920034,61.072377 L150.455155,60.2581594 C150.501483,60.2473751 150.543292,60.2120264 150.561372,60.1814708 L150.85008,59.6728096 C150.881719,59.5883322 150.899799,59.5583757 150.883979,59.4834845 L150.080569,55.5603821 L145.374795,56.6448071 L146.178206,60.5679096 C146.188941,60.6176374 146.199111,60.666766 146.284424,60.7254808 L146.740368,61.0364292 Z M137.712448,64.3645956 C137.672334,64.1656845 137.800021,63.9541917 137.949177,63.8421544 L143.135189,60.0730283 L142.565117,57.2918674 L136.875703,58.6033627 C136.688127,58.6465001 136.518066,58.5296697 136.476257,58.3313577 L136.008448,56.0462764 C135.967769,55.8485635 136.077377,55.6670272 136.264387,55.6238898 L151.951804,52.0087401 C152.138815,51.9662019 152.310005,52.0824331 152.350684,52.2813442 L153.968241,60.1766778 C153.968241,60.1766778 154.086323,60.5133888 153.867108,60.8752632 L152.840528,62.5684043 C152.621313,62.931477 152.287971,62.9818039 152.287971,62.9818039 L146.340922,64.3520139 C146.083289,64.4113278 145.83413,64.3915565 145.60644,64.2351836 L143.924475,63.0890481 L138.609081,66.940255 C138.45936,67.0522923 138.257095,67.0211375 138.196076,66.7227709 L137.712448,64.3645956 L137.712448,64.3645956 Z" id="Fill-20" fill="#FFFFFE"></path>
                <path d="M138.243546,78.4903856 C138.073523,78.355997 138,78.1079358 138,77.905025 L138,72.0944439 C138,71.9138426 138.097648,71.6434718 138.243546,71.5090832 L139.631876,70.2252204 C139.874848,70 140.070719,70 140.264867,70 L154.659954,70 C154.854102,70 155,70.135451 155,70.3149899 L155,72.3871242 C155,72.5671943 154.854102,72.7026453 154.659954,72.7026453 L141.433775,72.7026453 C141.384951,72.7026453 141.312576,72.7249548 141.263752,72.7701052 L140.922557,73.0850951 L140.922557,76.9143737 L141.263752,77.2298948 C141.312576,77.2750452 141.384951,77.2973547 141.433775,77.2973547 L154.659954,77.2973547 C154.854102,77.2973547 155,77.4328057 155,77.6123446 L155,79.6844789 C155,79.8422395 154.854102,80 154.659954,80 L140.264867,80 C140.118969,80 139.826024,79.9320089 139.631876,79.75247 L138.243546,78.4903856" id="Fill-21" fill="#FFFFFE"></path>
                <path d="M138.243546,92.4913679 C138.049399,92.3112882 138,92.0860558 138,91.9049137 L138,86.0945551 C138,85.7561753 138.073523,85.6887118 138.267671,85.5086321 L139.631876,84.2247012 C139.851297,84.0223108 140.02132,84 140.191918,84 L142.676206,84 C142.846229,84 143.016827,84.134927 143.016827,84.3150066 L143.016827,86.387251 C143.016827,86.5673307 142.846229,86.7022576 142.676206,86.7022576 L140.922557,86.7022576 L140.922557,90.7341301 C140.922557,90.7792829 140.947256,90.8015936 140.995506,90.8472776 L141.384951,91.2297477 C141.433775,91.2972112 141.507298,91.2972112 141.556122,91.2972112 L144.405156,91.2972112 C144.454555,91.2972112 144.527504,91.2749004 144.575753,91.2297477 L144.965772,90.8695883 C145.014597,90.8239044 145.038721,90.7792829 145.038721,90.7118194 L145.038721,86.0270916 C145.038721,85.9367862 145.087546,85.7110226 145.306967,85.5086321 L146.670597,84.2247012 C146.86532,84.0446215 147.084741,84 147.279463,84 L152.759258,84 C152.93043,84 153.173976,84.0446215 153.392823,84.247012 L154.757028,85.5086321 C154.9035,85.6435591 155,85.7338645 155,86.0945551 L155,91.9049137 C155,92.0860558 154.927625,92.3335989 154.757028,92.4913679 L153.392823,93.7524568 C153.101027,94 152.954555,94 152.759258,94 L150.202595,94 C150.007298,94 149.860826,93.8656042 149.860826,93.6849934 L149.860826,91.612749 C149.860826,91.4326693 150.007298,91.2972112 150.202595,91.2972112 L152.078017,91.2972112 L152.078017,87.3333333 C152.078017,87.2658699 152.053318,87.2201859 152.005068,87.1527224 L151.615049,86.7697211 C151.566225,86.7022576 151.492702,86.7022576 151.445026,86.7022576 L148.618969,86.7022576 C148.570719,86.7022576 148.49777,86.7256308 148.448371,86.7697211 L148.034802,87.1527224 C147.985978,87.1978752 147.961853,87.2658699 147.961853,87.3333333 L147.961853,91.9049137 C147.961853,92.1535193 147.864779,92.3564409 147.718307,92.4913679 L146.354102,93.7524568 C146.13468,93.9330677 145.939958,94 145.720537,94 L140.264867,94 C140.045445,94 139.801899,93.9102258 139.631876,93.7524568 L138.243546,92.4913679" id="Fill-22" fill="#FFFFFE"></path>
                <g id="Group-26" transform="translate(0.000000, 99.000000)">
                    <mask id="mask-2" fill="white">
                        <use xlink:href="#path-1"></use>
                    </mask>
                    <g id="Clip-24"></g>
                    <path d="M138.105253,4.04713413 C138.105253,3.90109463 138.226843,3.75448016 138.396384,3.75448016 L152.096108,3.75448016 L152.096108,0.342100413 C152.096108,0.146614463 152.241103,0 152.43462,0 L154.662059,0 C154.855005,0 155,0.146614463 155,0.342100413 L155,10.1181228 C155,10.2883106 154.855005,10.4590733 154.662059,10.4590733 L152.43462,10.4590733 C152.241103,10.4590733 152.096108,10.2883106 152.096108,10.1181228 L152.096108,6.68044487 L138.396384,6.68044487 C138.226843,6.68044487 138.105253,6.55797868 138.105253,6.41193917 L138.105253,4.04713413" id="Fill-23" fill="#FFFFFE" mask="url(#mask-2)"></path>
                    <path d="M3.46046618,41.9052883 C3.51127144,41.977733 3.58491052,41.9754332 3.63400325,41.9748583 L13.715137,41.6747298 C13.7648006,41.6730049 13.8138933,41.671855 13.8846781,41.5959605 L14.2665739,41.1888897 C14.3373587,41.1124202 14.3356462,41.0623988 14.3345045,41.0135273 L14.2203354,37.1095579 L2.98609346,37.4436089 L3.10654189,41.5695124 L3.46046618,41.9052883 Z M0.460101574,43.4042055 C0.232334169,43.188596 0.202650197,42.9913852 0.19180413,42.6452601 L-0.0336798919,34.9126408 C-0.0405300394,34.7142801 0.102181367,34.561916 0.299123107,34.5561664 L16.7337686,34.0680265 C16.9295687,34.0628519 17.0808428,34.2065916 17.0871221,34.4032274 L17.3171729,42.2600378 C17.3234522,42.4578235 17.3291606,42.6550344 17.091118,42.9097411 L15.7576226,44.3344887 C15.4721998,44.6392168 15.32378,44.6190932 15.1279799,44.6248428 L2.51971259,44.9997159 C2.27424897,45.0071903 2.04933579,44.8657505 1.8980617,44.746734 L0.460101574,43.4042055 L0.460101574,43.4042055 Z" id="Fill-25" fill="#FFFFFE" mask="url(#mask-2)"></path>
                </g>
                <path d="M2.01577046,153.122728 C1.95914927,152.932477 2.05923723,152.747992 2.24797454,152.692646 L18.0441436,148.015363 C18.2328809,147.959441 18.4158989,148.060332 18.4708043,148.250582 L20.985014,156.877006 C21.0399194,157.067257 20.9398315,157.251166 20.752238,157.307665 L18.5829028,157.949328 C18.4176147,157.998908 18.2111475,157.90436 18.1562421,157.715262 L16.3758201,151.607064 L12.3917471,152.786618 L13.7975541,157.610913 C13.8461683,157.777526 13.7535154,157.986225 13.5647781,158.041571 L11.3954429,158.683811 C11.2067056,158.739733 11.0162525,158.615205 10.9682102,158.448592 L9.56297516,153.624297 L5.57775825,154.804428 L7.35818021,160.912049 C7.41308561,161.1023 7.31299765,161.286785 7.1254042,161.342131 L4.95664092,161.984371 C4.76733168,162.040869 4.58431368,161.939979 4.52940828,161.749728 L2.01577046,153.122728" id="Fill-27" fill="#FFFFFE"></path>
                <path d="M13.2126715,176.598509 C12.9410874,176.542663 12.7655236,176.357897 12.6570035,176.188578 L9.16447669,170.70738 C8.96220899,170.388346 8.98266303,170.28319 9.03663896,169.999802 L9.40253895,167.995891 C9.4633329,167.677452 9.59230697,167.557443 9.73434889,167.458228 L11.8064565,166.013962 C11.9484984,165.914747 12.1729246,165.943264 12.2808765,166.113772 L13.5263001,168.068372 C13.6348201,168.237692 13.573458,168.464639 13.4308479,168.56326 L11.9689524,169.582148 L14.3910513,173.385004 C14.4183234,173.427779 14.4524135,173.434908 14.5200254,173.449167 L15.0751252,173.583434 C15.1563732,173.61908 15.2177353,173.576899 15.2580752,173.548382 L17.6352889,171.892022 C17.6756288,171.863505 17.7227867,171.80053 17.7364227,171.729832 L17.8449428,171.163057 C17.8585788,171.092359 17.8517608,171.035919 17.8108527,170.971756 L14.9961499,166.552814 C14.9416058,166.468451 14.84729,166.227246 14.9075158,165.908806 L15.2739839,163.905489 C15.3279599,163.622102 15.484206,163.452782 15.646702,163.339309 L20.2176111,160.154914 C20.359653,160.055699 20.5903291,159.956484 20.894867,160.020053 L22.7914108,160.417508 C22.9936785,160.459689 23.1294705,160.488206 23.3453743,160.828628 L26.8379011,166.308638 C26.945853,166.479145 27.0344871,166.754809 26.986761,167.00255 L26.6077932,168.985074 C26.512341,169.389064 26.3901849,169.473427 26.227689,169.5869 L24.0942193,171.073347 C23.9322915,171.186227 23.7288875,171.144046 23.6209356,170.973538 L22.375512,169.018938 C22.2675601,168.849618 22.3079,168.636335 22.4698278,168.524049 L24.0345617,167.434464 L21.6522345,163.695177 C21.6113264,163.631013 21.5641685,163.602497 21.4829205,163.567444 L20.9283889,163.432583 C20.8471409,163.398125 20.7857788,163.440306 20.7454389,163.468229 L18.3881111,165.109737 C18.3477712,165.13766 18.3006133,165.201823 18.2869772,165.272521 L18.1722074,165.874348 C18.1585713,165.94564 18.1784572,166.023468 18.2187971,166.087037 L20.9658879,170.399634 C21.1158842,170.632522 21.1562241,170.880264 21.1158842,171.093547 L20.73578,173.075476 C20.6607819,173.373122 20.5397622,173.550164 20.3568122,173.677303 L15.8057889,176.846844 C15.6228389,176.975171 15.3654589,177.031611 15.128533,176.9823 L13.2126715,176.598509" id="Fill-28" fill="#FFFFFE"></path>
                <path d="M20.1210952,184.321216 C19.9697967,184.183098 19.958479,183.966396 20.0972687,183.814586 L31.6281274,171.120855 C31.7663214,170.969044 31.983143,170.959519 32.1350373,171.096446 L33.8791407,172.679442 C34.0304393,172.817559 34.0411612,173.033666 33.9029672,173.185476 L22.3721085,185.879207 C22.2333189,186.030422 22.0170929,186.041139 21.8651987,185.903021 L20.1210952,184.321216" id="Fill-29" fill="#FFFFFE"></path>
                <path d="M36.225039,195.941116 C35.944958,196.040037 35.8255792,196.00035 35.6964435,195.924531 L29.9410085,192.580777 C29.8549181,192.530428 29.6523185,192.383528 29.5679498,192.071958 L29.0324671,190.096507 C28.9486724,189.784937 29.0479634,189.551555 29.0961741,189.462705 L35.3365853,178.026415 C35.4450593,177.826797 35.6304408,177.641395 35.8657547,177.57446 L37.7666323,177.043725 C38.0346607,176.966721 38.1666661,176.985675 38.4461731,177.146792 L43.9869558,180.367931 C44.1373272,180.454413 44.3209869,180.532601 44.4237215,180.914068 L44.9500212,182.853386 C45.024633,183.131193 45.0286505,183.279277 44.8719659,183.566562 L43.5777391,185.93888 C43.4807439,186.116581 43.2798661,186.174038 43.1082591,186.073933 L41.1321958,184.925388 C40.9605888,184.825875 40.9031952,184.617964 41.0007644,184.440854 L41.6412775,183.265654 C41.6774355,183.199904 41.7021147,183.156071 41.6613652,183.073736 L41.4903322,182.506867 C41.4713923,182.437564 41.4403997,182.390177 41.3543092,182.34042 L38.176423,180.493507 C38.1121421,180.45619 38.0685229,180.430719 37.968658,180.460336 L37.4096439,180.60309 C37.3419194,180.621452 37.2965784,180.653439 37.2604204,180.720373 L32.2907045,189.829955 C32.2660252,189.873788 32.2511028,189.953161 32.2694688,190.021873 L32.4014742,190.507591 L36.0517102,192.628757 L36.5223381,192.493703 C36.5900626,192.473564 36.622777,192.465271 36.6715616,192.375828 L38.0622096,189.826401 L36.0649107,188.666601 C35.8927298,188.565903 35.8370579,188.358585 35.9329053,188.180883 L37.0457681,186.142052 C37.1433373,185.964943 37.344789,185.906301 37.516396,186.006999 L41.789927,188.490676 C41.961534,188.589597 42.0177798,188.797508 41.9207845,188.974617 L38.5712913,195.114211 C38.5110279,195.225571 38.3308119,195.296059 38.1173075,195.376617 L36.225039,195.941116" id="Fill-30" fill="#FFFFFE"></path>
                <g id="Group-34" transform="translate(46.000000, 183.000000)">
                    <mask id="mask-4" fill="white">
                        <use xlink:href="#path-3"></use>
                    </mask>
                    <g id="Clip-32"></g>
                    <path d="M7.37828601,19.0505861 C7.18897979,18.9976132 7.04499234,18.7727726 7.01917785,18.5814816 L5.71296496,6.87152564 L2.86361957,17.3978313 C2.81141695,17.5920653 2.62956825,17.6980112 2.43911472,17.6438611 L0.254062062,17.0211351 C0.0647558457,16.966985 -0.0390757457,16.7798141 0.0137005328,16.5855801 L4.4331402,0.261095123 C4.48534283,0.0656839461 4.66719153,-0.039673285 4.85764505,0.0138882124 L7.75517747,0.839677012 C7.94448369,0.893827098 8.00758576,1.04332842 8.01848521,1.2822951 L9.05508016,12.1023062 L9.01262968,12.8245035 L11.8418971,2.37177127 C11.8952471,2.1763601 12.0770958,2.07159145 12.266402,2.12574154 L14.4514546,2.74787893 C14.6419082,2.8026176 14.7445924,2.98802279 14.6912425,3.18343396 L10.2735238,19.5085075 C10.2201739,19.7039187 10.0383252,19.8086873 9.84787165,19.7551258 L7.37828601,19.0505861" id="Fill-31" fill="#FFFFFE" mask="url(#mask-4)"></path>
                    <path d="M37.3729955,21.6939343 C37.2026199,21.872865 37.0804314,21.9505586 36.7345173,21.9546787 L30.3015479,22.0353153 C30.1042105,22.0382582 29.9556338,22.0141261 29.7319082,21.7892855 L28.3092433,20.3654914 C28.110185,20.1653716 28.0579824,19.9893838 28.0556877,19.786321 L27.9008008,6.73673901 C27.8979326,6.5089555 27.9443986,6.27999482 28.1388677,6.07575482 L29.5271133,4.64195474 C29.7221561,4.43653757 29.943587,4.38297607 30.1650179,4.38121031 L36.5251331,4.30098554 C36.796472,4.29763083 36.9685686,4.34589503 37.1687743,4.54601491 L38.5661983,5.94508831 C38.7652567,6.14520819 38.8409792,6.24467954 38.8449948,6.59959804 L38.8776931,9.30533654 C38.8799877,9.50781077 38.7337057,9.66143221 38.5363683,9.66378656 L36.2687093,9.69203878 C36.0719455,9.69439313 35.9216479,9.54430322 35.9193532,9.34182898 L35.9032909,8.00161437 C35.9027172,7.92568654 35.8774764,7.87565657 35.8269947,7.8256266 L35.4036372,7.42597543 C35.3284884,7.37653404 35.3038212,7.35181335 35.2550605,7.35181335 L31.5572791,7.39890038 C31.4586104,7.39948897 31.4098497,7.42597543 31.361089,7.47718257 L30.9463363,7.88742833 C30.8975756,7.93863547 30.8734821,7.98925403 30.8746294,8.06459328 L30.9979653,18.4096139 C30.9996862,18.5349831 31.0495942,18.610911 31.0742614,18.6356317 L31.4241911,18.9858415 L35.6141687,18.9328685 L35.9554935,18.5750071 C36.0036806,18.5238 36.0277741,18.4472835 36.0272004,18.3972536 L36.0105644,16.9811111 C36.0076961,16.7786369 36.1539782,16.598529 36.3507419,16.5967632 L38.618401,16.568511 C38.816312,16.5661567 38.9654624,16.7415559 38.967757,16.9434415 L38.9998817,19.6244593 C39.0027499,19.8522428 38.9545629,20.0046871 38.7360003,20.2348249 L37.3729955,21.6939343" id="Fill-33" fill="#FFFFFE" mask="url(#mask-4)"></path>
                </g>
                <path d="M98.5953635,199.736502 C98.6370509,199.679518 98.6536032,199.626523 98.6395031,199.554723 L96.6783583,189.65487 C96.674067,189.630937 96.6556755,189.534634 96.5680094,189.499873 L96.0505958,189.18988 C96.0199433,189.169365 95.9322773,189.135175 95.8807811,189.144292 L91.9676874,189.813286 C91.9161912,189.822404 91.8426253,189.859443 91.800938,189.916427 L91.4361736,190.377429 C91.3730295,190.462905 91.3828383,190.510772 91.3926471,190.559778 L93.3531788,200.459631 C93.367892,200.531431 93.4028358,200.575309 93.4635277,200.614058 L93.8932753,200.890431 L98.2992607,200.136531 L98.5953635,199.736502 Z M100.638044,202.475729 C100.469455,202.703096 100.192357,202.799969 99.8042967,202.86721 L93.2483474,203.988088 C93.144129,204.006893 92.8805178,204.026837 92.6040326,203.849617 L90.8550029,202.729879 C90.5791307,202.553228 90.5061778,202.316174 90.4859472,202.219871 L88.0153585,189.742626 C87.9914495,189.621819 87.9699928,189.376788 88.1600381,189.120359 L89.3701974,187.518535 C89.539399,187.290029 89.6853048,187.21595 89.9967338,187.162384 L96.6820366,186.018143 C96.8898603,185.982813 97.1577629,185.986802 97.4035956,186.143508 L99.1213598,187.244442 C99.3058877,187.362399 99.4781545,187.556715 99.5302637,187.822261 L101.97817,200.179269 C102.040088,200.492682 101.965296,200.654517 101.816938,200.853961 L100.638044,202.475729 L100.638044,202.475729 Z" id="Fill-35" fill="#FFFFFE"></path>
                <path d="M120.73974,195.397415 C120.560536,195.478363 120.365922,195.404304 120.285451,195.223463 L116.741879,187.630416 L117.868471,196.313104 C117.894153,196.490501 117.763459,196.739661 117.583684,196.820035 L115.794491,197.627219 C115.593029,197.717927 115.333353,197.618608 115.207796,197.458434 L109.536026,190.878674 L112.83362,198.58367 C112.914661,198.763363 112.840468,198.959131 112.661263,199.039505 L110.602693,199.967825 C110.422918,200.048199 110.228874,199.973566 110.148403,199.793299 L104.033187,184.438994 C103.962419,184.281691 104.004652,184.073293 104.161598,184.002678 L106.377116,183.003744 C106.55575,182.92337 106.685302,182.973317 106.853092,183.167937 L114.743804,192.856448 L112.827912,180.47426 C112.794811,180.219359 112.844463,180.089039 113.023097,180.007516 L115.216356,179.01949 C115.349904,178.958636 115.577619,179.045899 115.647247,179.203202 L122.971238,194.01326 C123.051138,194.192953 122.955258,194.399055 122.798311,194.469669 L120.73974,195.397415" id="Fill-36" fill="#FFFFFE"></path>
                <path d="M129.646455,177.518647 C129.648812,177.483756 129.651169,177.446501 129.618763,177.409245 L127.047457,174.467214 C127.01505,174.428776 126.997374,174.409852 126.92608,174.405712 L126.30034,174.382058 C126.26381,174.379692 126.209013,174.393885 126.171304,174.427593 L123.145129,177.0905 L126.499493,180.930219 L129.525668,178.266721 C129.582821,178.217046 129.604032,178.163824 129.606389,178.128933 L129.646455,177.518647 Z M130.7742,189.908291 C130.622185,190.041939 130.407713,190.028338 130.274552,189.875175 L119.091375,177.075125 C118.958214,176.923144 118.971765,176.707888 119.12437,176.57424 L125.177898,171.247243 C125.349358,171.096446 125.517872,170.981721 125.839579,171.002419 L127.839353,171.134293 C128.248853,171.179236 128.399101,171.351323 128.482769,171.446532 L132.772206,176.356619 C132.95545,176.566552 133.015549,176.750466 132.996695,177.037277 L132.865301,179.044954 C132.851749,179.260211 132.782812,179.489068 132.554199,179.691314 L128.51871,183.241266 L132.558324,187.864541 C132.691485,188.017704 132.677933,188.23296 132.525328,188.367199 L130.7742,189.908291 L130.7742,189.908291 Z" id="Fill-37" fill="#FFFFFE"></path>
                <path d="M134.46161,165.63953 L138.825037,170.526178 L140.835408,167.40537 L134.46161,165.63953 Z M147.78517,169.007317 C147.678081,169.172918 147.411807,169.266815 147.216153,169.204217 L143.879619,168.256707 L140.912396,172.866215 L143.209881,175.426484 C143.338966,175.592654 143.378908,175.849876 143.273555,176.014339 L142.115262,177.814324 C142.008173,177.978786 141.740741,178.073822 141.5995,177.928139 L130.167646,165.080698 C130.068082,164.961193 129.932051,164.760309 130.039139,164.594708 L131.609,162.155652 C131.716089,161.990621 131.873538,161.972979 132.103345,162.028179 L148.813799,166.723618 C149.008296,166.786786 149.048816,167.043439 148.942885,167.209039 L147.78517,169.007317 L147.78517,169.007317 Z" id="Fill-38" fill="#FFFFFE"></path>
                <path d="M154.372409,151.226972 C154.324554,151.427173 154.110915,151.583017 153.9269,151.613587 L142.62681,153.294912 L152.890607,155.98803 C153.079749,156.03838 153.186284,156.226592 153.139568,156.426193 L152.594361,158.726102 C152.546506,158.925704 152.369328,159.038391 152.178477,158.988041 L136.260931,154.810203 C136.07008,154.759853 135.963545,154.572839 136.011401,154.372639 L136.734356,151.322876 C136.781072,151.123275 136.923498,151.054943 137.155937,151.035762 L147.60204,149.66253 L148.302207,149.686506 L138.109623,147.011371 C137.919911,146.96162 137.813376,146.773408 137.860662,146.573807 L138.405299,144.273898 C138.453154,144.074296 138.631472,143.961609 138.821753,144.011959 L154.739299,148.190397 C154.92958,148.239548 155.036115,148.427161 154.988829,148.626762 L154.372409,151.226972" id="Fill-39" fill="#FFFFFE"></path>
                <path d="M155,136.130325 C155,136.268207 154.854333,136.383556 154.659354,136.383556 L147.15777,136.383556 L138.390524,140.971233 C138.194979,141.086046 138,140.832278 138,140.648792 L138,138.319812 C138,138.135254 138.170606,137.973765 138.341213,137.881486 L144.454706,135.00044 L138.341213,132.118857 C138.170606,132.026041 138,131.865089 138,131.68053 L138,129.351551 C138,129.167529 138.194979,128.914297 138.390524,129.028573 L147.15777,133.616787 L154.659354,133.616787 C154.854333,133.616787 155,133.732136 155,133.893624 L155,136.130325" id="Fill-40" fill="#FFFFFE"></path>
                <path d="M10,120.5 C10,121.880402 8.88040157,123 7.5,123 C6.11905282,123 5,121.880402 5,120.5 C5,119.119598 6.11905282,118 7.5,118 C8.88040157,118 10,119.119598 10,120.5" id="Fill-41" fill="#FFFFFE"></path>
                <path d="M150,120.499727 C150,121.881371 148.880825,123 147.500273,123 C146.119175,123 145,121.881371 145,120.499727 C145,119.119175 146.119175,118 147.500273,118 C148.880825,118 150,119.119175 150,120.499727" id="Fill-42" fill="#FFFFFE"></path>
            </g>
        </g>
    </g>
</svg>