<?xml version="1.0" encoding="UTF-8"?>
<svg width="123px" height="37px" viewBox="0 0 123 37" version="1.1" xmlns="http://www.w3.org/2000/svg" xmlns:xlink="http://www.w3.org/1999/xlink">
    <title>pmg-logo</title>
    <defs>
        <polygon id="path-1" points="0.3668 0.378571429 3.77657143 0.378571429 3.77657143 3.81228571 0.3668 3.81228571"></polygon>
    </defs>
    <g id="Mobile" stroke="none" stroke-width="1" fill="none" fill-rule="evenodd">
        <g id="pmg-mobile-nav" transform="translate(-24.000000, -45.000000)">
            <g id="pmg-logo" transform="translate(24.000000, 45.000000)">
                <path d="M13.0264745,6.18173928 C9.53903948,6.18173928 6.71835024,8.83075855 6.71835024,13.3508072 C6.71835024,17.870335 9.53903948,20.5719493 13.0264745,20.5719493 C16.5128813,20.5719493 19.2826779,17.9213678 19.2826779,13.3508072 C19.2826779,8.83075855 16.5128813,6.18173928 13.0264745,6.18173928 M0,35.517792 L0,1.0529422 C0,0.786842562 0.212824011,0.57125499 0.474998517,0.57125499 L6.14002412,0.57125499 C6.4027127,0.57125499 6.61553671,0.786842562 6.61553671,1.0529422 L6.61553671,2.26627322 C6.61553671,2.69276167 7.1321747,2.92136782 7.42416513,2.61465023 C8.83579493,1.13157438 11.2760741,0 14.3589379,0 C21.7440338,0 26,5.71463288 26,13.2987329 C26,21.0395765 21.2309943,26.7526471 14.1029322,26.7526471 C11.2431738,26.7526471 9.00440912,25.8095817 7.6123139,24.5249089 C7.30695771,24.2426662 6.82116377,24.459816 6.82116377,24.8784933 L6.82116377,35.517792 C6.82116377,35.7844124 6.60833976,36 6.34565119,36 L0.474998517,36 C0.212824011,36 0,35.7844124 0,35.517792" id="Fill-1" fill="#000000"></path>
                <path d="M34.9726117,17 C37.7590929,17 40,19.0270449 40,21.4997521 C40,23.9724594 37.7590929,26 34.9726117,26 C32.2403593,26 30,23.9724594 30,21.4997521 C30,19.0270449 32.2403593,17 34.9726117,17" id="Fill-3" fill="#3DB6C9"></path>
                <path d="M46,25.5235454 L46,1.19551479 C46,0.932305803 46.2155156,0.719060166 46.4815265,0.719060166 L52.1130436,0.719060166 C52.3790544,0.719060166 52.5945701,0.932305803 52.5945701,1.19551479 L52.5945701,2.36012441 C52.5945701,2.79588724 53.1297152,2.99677081 53.4290424,2.67690235 C55.0620679,0.932305803 57.7305054,0 60.0735871,0 C63.2636349,0 65.8867829,1.25268934 67.3011693,3.56027498 C67.4745188,3.84305723 67.8847273,3.86778137 68.0846259,3.60251204 C70.0570624,0.979693722 72.6135775,0 75.7567741,0 C80.4819803,0 85,2.82627731 85,9.60841571 L85,25.5235454 C85,25.7867544 84.7844844,26 84.517953,26 L78.7828426,26 C78.5168317,26 78.3013161,25.7867544 78.3013161,25.5235454 L78.3013161,10.9960576 C78.3013161,8.27279751 76.9509597,6.21760406 73.783817,6.21760406 C70.8238608,6.21760406 69.057049,8.47728669 69.057049,11.201577 L69.057049,25.5235454 C69.057049,25.7867544 68.8415334,26 68.5755226,26 L62.684762,26 C62.4187512,26 62.2032355,25.7867544 62.2032355,25.5235454 L62.2032355,10.9960576 C62.2032355,8.27279751 60.8003017,6.21760406 57.6846953,6.21760406 C54.6726821,6.21760406 52.9069116,8.42680825 52.9069116,11.201577 L52.9069116,25.5235454 C52.9069116,25.7867544 52.6908754,26 52.4248645,26 L46.4815265,26 C46.2155156,26 46,25.7867544 46,25.5235454" id="Fill-5" fill="#000000"></path>
                <path d="M110.251044,12.5781507 C110.251044,8.59435168 107.53101,6.07945703 104.182751,6.07945703 C100.730663,6.07945703 98.0101047,8.59435168 98.0101047,12.5781507 C98.0101047,16.6139604 100.573345,19.128855 104.182751,19.128855 C107.739719,19.128855 110.251044,16.5603737 110.251044,12.5781507 L110.251044,12.5781507 Z M96.7830217,26.12664 C97.0520361,26.0546658 97.3147577,26.2264582 97.3824046,26.4970182 C98.0237389,29.0628727 100.196305,30.8685324 103.293379,30.8685324 C107.687804,30.8685324 110.146689,28.6672772 110.146689,23.6884478 L110.146689,21.8013574 C109.100522,23.4788294 106.694076,25.1037655 102.979791,25.1037655 C96.1270043,25.1037655 91,19.8102459 91,12.5781507 C91,5.76476685 95.9177709,0 102.979791,0 C106.142413,0 108.268833,1.07068212 109.478611,2.35781223 C109.775418,2.67250241 110.304008,2.44764866 110.304008,2.01475266 L110.304008,0.957204521 C110.304008,0.688745953 110.521107,0.471247231 110.789072,0.471247231 L116.514935,0.471247231 C116.782901,0.471247231 117,0.688745953 117,0.957204521 L117,23.4788294 C117,30.5538422 113.180311,37 103.503136,37 C96.6519231,37 92.0173252,32.8585932 91.077086,28.1135486 C91.0272685,27.8650537 91.1882576,27.6207616 91.4326254,27.5556171 L96.7830217,26.12664 Z" id="Fill-7" fill="#000000"></path>
                <g id="Group-11" transform="translate(119.000000, 23.000000)">
                    <mask id="mask-2" fill="white">
                        <use xlink:href="#path-1"></use>
                    </mask>
                    <g id="Clip-10"></g>
                    <path d="M2.0988,2.00485714 C2.28451429,2.00485714 2.39194286,1.90771429 2.39194286,1.75 C2.39194286,1.58714286 2.28451429,1.48885714 2.0988,1.48885714 L1.87137143,1.48885714 L1.87137143,2.00485714 L2.0988,2.00485714 Z M2.00622857,2.34428571 L1.87137143,2.34428571 L1.87137143,3.01342857 L1.47194286,3.01342857 L1.47194286,1.15057143 L2.16394286,1.15057143 C2.5268,1.15057143 2.80108571,1.41514286 2.80108571,1.74485714 C2.80108571,2.00028571 2.64737143,2.20542857 2.41994286,2.29342857 L2.8148,3.01342857 L2.35937143,3.01342857 L2.00622857,2.34428571 Z M2.0668,3.45971429 C2.80508571,3.45971429 3.3868,2.86485714 3.3868,2.09342857 C3.3868,1.32657143 2.80508571,0.731714286 2.0668,0.731714286 C1.32337143,0.731714286 0.747371429,1.32657143 0.747371429,2.09342857 C0.747371429,2.86485714 1.32337143,3.45971429 2.0668,3.45971429 L2.0668,3.45971429 Z M2.0668,0.378571429 C3.00965714,0.378571429 3.77708571,1.15057143 3.77708571,2.09342857 C3.77708571,3.04028571 3.00965714,3.81228571 2.0668,3.81228571 C1.12394286,3.81228571 0.3668,3.04028571 0.3668,2.09342857 C0.3668,1.15057143 1.12394286,0.378571429 2.0668,0.378571429 L2.0668,0.378571429 Z" id="Fill-9" fill="#000000" mask="url(#mask-2)"></path>
                </g>
            </g>
        </g>
    </g>
</svg>