<?xml version="1.0" encoding="UTF-8"?>
<svg width="349px" height="56px" viewBox="0 0 349 56" version="1.1" xmlns="http://www.w3.org/2000/svg" xmlns:xlink="http://www.w3.org/1999/xlink">
    <title>PAVONE_White</title>
    <defs>
        <polygon id="path-1" points="0.101538462 0.83025 43.4906154 0.83025 43.4906154 53.4549375 0.101538462 53.4549375"></polygon>
    </defs>
    <g id="Agencies" stroke="none" stroke-width="1" fill="none" fill-rule="evenodd">
        <g id="Pavone" transform="translate(-367.000000, -297.000000)">
            <g id="PAVONE_White" transform="translate(367.000000, 297.000000)">
                <g id="Group-3" transform="translate(0.000000, 1.000000)">
                    <mask id="mask-2" fill="white">
                        <use xlink:href="#path-1"></use>
                    </mask>
                    <g id="Clip-2"></g>
                    <path d="M32.9915385,19.575 C32.9915385,17.2513125 32.1504615,15.2904375 30.4750769,13.6029375 C28.8098462,11.9356875 26.8213846,11.1155625 24.5096923,11.1155625 L10.3636923,11.1155625 L10.3636923,28.0243125 L24.5096923,28.0243125 C26.8213846,28.0243125 28.8098462,27.1805625 30.4750769,25.518375 C32.1504615,23.857875 32.9915385,21.8649375 32.9915385,19.575 Z M43.4906154,19.5328125 C43.4906154,24.68475 41.6595385,29.0773125 37.9821538,32.740875 C34.3115385,36.40275 29.9030769,38.242125 24.7347692,38.242125 L10.3636923,38.242125 L10.3636923,53.4549375 L0,53.4549375 L0,0.83025 L24.7347692,0.83025 C29.9030769,0.83025 34.3115385,2.65275 37.9821538,6.31125 C41.6595385,9.9765 43.4906154,14.3893125 43.4906154,19.5328125 L43.4906154,19.5328125 Z" id="Fill-1" fill="#FFFFFE" mask="url(#mask-2)"></path>
                </g>
                <path d="M80.4452533,37.0885856 L74.4677902,24.6182644 L68.5886518,37.0885856 L80.4452533,37.0885856 Z M100,54 L88.3654767,54 L85.2631631,47.4449799 L63.691065,47.4449799 L60.6158755,54 L49,54 L74.4677902,0 L100,54 L100,54 Z" id="Fill-4" fill="#FFFFFE"></path>
                <polyline id="Fill-5" fill="#FFFFFE" points="152 2 128.497505 56 105 2 116.302219 2 128.497505 30.07738 140.711086 2 152 2"></polyline>
                <polyline id="Fill-6" fill="#FFFFFE" points="277 56 243.352546 24.2426657 243.352546 54.3402149 233 54.3402149 233 0 266.620565 32.014246 266.620565 1.63443197 277 1.63443197 277 56"></polyline>
                <polyline id="Fill-7" fill="#FFFFFE" points="336 54 300 54 300 2 336 2 336 12.2939422 310.381223 12.2939422 310.381223 22.5678735 333.891839 22.5678735 333.891839 32.8718212 310.381223 32.8718212 310.381223 43.7127281 336 43.7127281 336 54"></polyline>
                <path d="M188.509231,41.2178689 C181.429674,41.2178689 175.694528,35.4815696 175.694528,28.4009825 C175.694528,21.3220737 181.429674,15.5840962 188.509231,15.5840962 C195.583753,15.5840962 201.323934,21.3220737 201.323934,28.4009825 C201.323934,35.4815696 195.583753,41.2178689 188.509231,41.2178689 Z M188.505874,1 C173.312857,1 161,13.3117295 161,28.5 C161,43.6882705 173.312857,56 188.505874,56 C203.687143,56 216,43.6882705 216,28.5 C216,13.3117295 203.687143,1 188.505874,1 L188.505874,1 Z" id="Fill-8" fill="#FFFFFE"></path>
                <path d="M345.685037,50.2646545 L344.882045,50.2646545 L344.882045,51.3559491 L345.704239,51.3559491 C346.119701,51.3559491 346.341397,51.1341981 346.341397,50.8129209 C346.341397,50.4462459 346.090025,50.2646545 345.685037,50.2646545 Z M346.369327,51.9269144 L347.278803,53.2609129 L346.322195,53.2609129 L345.529676,52.0613619 L344.882045,52.0613619 L344.882045,53.2609129 L344.05985,53.2609129 L344.05985,49.5382889 L345.712968,49.5382889 C346.601496,49.5382889 347.172319,49.9905213 347.172319,50.765777 C347.172319,51.3751559 346.84414,51.7523073 346.369327,51.9269144 Z M345.510474,48.3858818 C343.742145,48.3858818 342.406733,49.7897231 342.406733,51.5113495 C342.406733,53.2312297 343.731671,54.6158643 345.491272,54.6158643 C347.259601,54.6158643 348.595012,53.213769 348.595012,51.4921427 C348.595012,49.7687703 347.270075,48.3858818 345.510474,48.3858818 Z M345.491272,55 C343.527431,55 342,53.4250437 342,51.5113495 C342,49.5959092 343.546633,48 345.510474,48 C347.472569,48 349,49.5749563 349,51.4921427 C349,53.4040908 347.455112,55 345.491272,55 L345.491272,55 Z" id="Fill-9" fill="#FFFFFE"></path>
            </g>
        </g>
    </g>
</svg>