<?xml version="1.0" encoding="UTF-8"?>
<svg width="263px" height="79px" viewBox="0 0 263 79" version="1.1" xmlns="http://www.w3.org/2000/svg" xmlns:xlink="http://www.w3.org/1999/xlink">
    <title>logo</title>
    <defs>
        <polygon id="path-1" points="0.7336 0.757142857 7.55314286 0.757142857 7.55314286 7.62457143 0.7336 7.62457143"></polygon>
    </defs>
    <g id="Agencies" stroke="none" stroke-width="1" fill="none" fill-rule="evenodd">
        <g id="pmg" transform="translate(-367.000000, -317.000000)">
            <g id="logo" transform="translate(367.000000, 317.000000)">
                <path d="M28.057022,13.2220535 C20.5456235,13.2220535 14.4702928,18.8880113 14.4702928,28.5558931 C14.4702928,38.222661 20.5456235,44.0011138 28.057022,44.0011138 C35.566206,44.0011138 41.5319216,38.3318145 41.5319216,28.5558931 C41.5319216,18.8880113 35.566206,13.2220535 28.057022,13.2220535 M0,75.9686108 L0,2.25212637 C0,1.68296881 0.458390177,1.22185095 1.02307373,1.22185095 L13.2246673,1.22185095 C13.7904581,1.22185095 14.2488483,1.68296881 14.2488483,2.25212637 L14.2488483,4.8473066 C14.2488483,5.75951802 15.3616071,6.24848117 15.9905095,5.59244633 C19.0309429,2.42031187 24.2869288,0 30.9269431,0 C46.8333037,0 56,12.2229648 56,28.4445119 C56,45.0013163 45.7282955,57.2209397 30.3755462,57.2209397 C24.2160666,57.2209397 19.3941119,55.2038275 16.395753,52.4560551 C15.7380628,51.8523694 14.6917374,52.3168287 14.6917374,53.2123329 L14.6917374,75.9686108 C14.6917374,76.5388821 14.2333472,77 13.6675564,77 L1.02307373,77 C0.458390177,77 0,76.5388821 0,75.9686108" id="Fill-1" fill="#FFFFFF"></path>
                <path d="M75.9452235,36 C81.5181858,36 86,40.5045442 86,45.9994492 C86,51.4943542 81.5181858,56 75.9452235,56 C70.4807187,56 66,51.4943542 66,45.9994492 C66,40.5045442 70.4807187,36 75.9452235,36" id="Fill-3" fill="#FFFFFF"></path>
                <path d="M99,54.97379 L99,2.57495493 C99,2.00804327 99.4586615,1.54874497 100.024787,1.54874497 L112.009811,1.54874497 C112.575936,1.54874497 113.034598,2.00804327 113.034598,2.57495493 L113.034598,5.08334489 C113.034598,6.02191097 114.173496,6.45458328 114.810526,5.76563583 C118.285939,2.00804327 123.964922,0 128.95148,0 C135.740556,0 141.323153,2.69810012 144.333258,7.66828457 C144.702181,8.27735404 145.575189,8.33060602 146.000614,7.75925669 C150.198364,2.11010955 155.639152,0 162.328519,0 C172.384727,0 182,6.08736652 182,20.6950492 L182,54.97379 C182,55.5407017 181.541339,56 180.974105,56 L168.768614,56 C168.202488,56 167.743827,55.5407017 167.743827,54.97379 L167.743827,23.6838164 C167.743827,17.8183331 164.869991,13.3917626 158.129662,13.3917626 C151.830268,13.3917626 148.07013,18.2587713 148.07013,24.1264734 L148.07013,54.97379 C148.07013,55.5407017 147.611469,56 147.045343,56 L134.508596,56 C133.94247,56 133.483809,55.5407017 133.483809,54.97379 L133.483809,23.6838164 C133.483809,17.8183331 130.498078,13.3917626 123.867428,13.3917626 C117.457247,13.3917626 113.699325,18.1500485 113.699325,24.1264734 L113.699325,54.97379 C113.699325,55.5407017 113.239555,56 112.67343,56 L100.024787,56 C99.4586615,56 99,55.5407017 99,54.97379" id="Fill-5" fill="#FFFFFF"></path>
                <path d="M235.723362,27.5161016 C235.723362,19.1178225 229.969444,13.8161527 222.88659,13.8161527 C215.584095,13.8161527 209.829068,19.1178225 209.829068,27.5161016 C209.829068,36.0240245 215.251306,41.3256943 222.88659,41.3256943 C230.410944,41.3256943 235.723362,35.9110581 235.723362,27.5161016 L235.723362,27.5161016 Z M207.233315,56.0777816 C207.802384,55.9260521 208.358141,56.2882092 208.50124,56.858579 C209.857909,62.2676776 214.453722,66.0742034 221.005224,66.0742034 C230.301123,66.0742034 235.502612,61.4337195 235.502612,50.9378088 L235.502612,46.9596183 C233.289567,50.4959107 228.199008,53.9214517 220.341865,53.9214517 C205.845586,53.9214517 195,42.7621401 195,27.5161016 C195,13.1527517 205.402977,1 220.341865,1 C227.032028,1 231.530223,3.25711365 234.089369,5.97052309 C234.71723,6.63392401 235.835401,6.15990799 235.835401,5.24731641 L235.835401,3.01789061 C235.835401,2.45195093 236.294649,1.99344011 236.861499,1.99344011 L248.973901,1.99344011 C249.540751,1.99344011 250,2.45195093 250,3.01789061 L250,50.4959107 C250,65.4108025 241.919889,79 221.448942,79 C206.955991,79 197.152034,70.2694667 195.163066,60.2663997 C195.057683,59.7425456 195.398237,59.2275515 195.915169,59.0902198 L207.233315,56.0777816 Z" id="Fill-7" fill="#FFFFFF"></path>
                <g id="Group-11" transform="translate(255.000000, 49.000000)">
                    <mask id="mask-2" fill="white">
                        <use xlink:href="#path-1"></use>
                    </mask>
                    <g id="Clip-10"></g>
                    <path d="M4.1976,4.00971429 C4.56902857,4.00971429 4.78388571,3.81542857 4.78388571,3.5 C4.78388571,3.17428571 4.56902857,2.97771429 4.1976,2.97771429 L3.74274286,2.97771429 L3.74274286,4.00971429 L4.1976,4.00971429 Z M4.01245714,4.68857143 L3.74274286,4.68857143 L3.74274286,6.02685714 L2.94388571,6.02685714 L2.94388571,2.30114286 L4.32788571,2.30114286 C5.0536,2.30114286 5.60217143,2.83028571 5.60217143,3.48971429 C5.60217143,4.00057143 5.29474286,4.41085714 4.83988571,4.58685714 L5.6296,6.02685714 L4.71874286,6.02685714 L4.01245714,4.68857143 Z M4.1336,6.91942857 C5.61017143,6.91942857 6.7736,5.72971429 6.7736,4.18685714 C6.7736,2.65314286 5.61017143,1.46342857 4.1336,1.46342857 C2.64674286,1.46342857 1.49474286,2.65314286 1.49474286,4.18685714 C1.49474286,5.72971429 2.64674286,6.91942857 4.1336,6.91942857 L4.1336,6.91942857 Z M4.1336,0.757142857 C6.01931429,0.757142857 7.55417143,2.30114286 7.55417143,4.18685714 C7.55417143,6.08057143 6.01931429,7.62457143 4.1336,7.62457143 C2.24788571,7.62457143 0.7336,6.08057143 0.7336,4.18685714 C0.7336,2.30114286 2.24788571,0.757142857 4.1336,0.757142857 L4.1336,0.757142857 Z" id="Fill-9" fill="#FFFFFF" mask="url(#mask-2)"></path>
                </g>
            </g>
        </g>
    </g>
</svg>