<?xml version="1.0" encoding="UTF-8"?>
<svg width="236px" height="80px" viewBox="0 0 236 80" version="1.1" xmlns="http://www.w3.org/2000/svg" xmlns:xlink="http://www.w3.org/1999/xlink">
    <title>signiture</title>
    <g id="Desktop" stroke="none" stroke-width="1" fill="none" fill-rule="evenodd">
        <g id="pmg-desktop" transform="translate(-414.000000, -844.000000)" stroke="#000000" stroke-width="2">
            <g id="HEADER">
                <path d="M415,923 C425.834908,900.484892 443.107858,881.172783 460.168987,862.169502 C464.434269,857.422359 469.07826,852.469329 474.797397,849.136917 C479.168589,846.589813 487.416727,842.786803 491.454143,846.645696 C497.821577,852.739922 491.669172,875.390327 490.022754,882.502218 C487.269095,894.396548 480.680213,905.858518 482.75669,918.326387 C483.668157,923.785308 494.499856,913.314533 496.361304,911.67921 C500.199737,908.302679 503.688346,904.461434 507.719343,901.273142 C516.253117,894.523021 524.786891,887.769959 533.320665,881.02278 C534.915733,879.758052 536.889509,878.408028 538.924264,878.905095 C540.455144,879.281573 541.453265,880.584537 542.355104,881.778676 C548.196198,889.528814 558.562535,897.026007 567.834469,892.955346 C571.502805,891.343553 574.054272,888.214085 577.173801,885.816983 C580.29333,883.422823 584.844248,881.743381 588.364952,883.616944 C590.037045,884.511078 591.160332,886.058164 592.646281,887.199361 C596.741466,890.346476 602.848939,889.978822 607.576374,892.272981 C612.002126,894.417137 614.723691,898.626035 618.549286,901.584912 C627.24032,908.308561 641.913662,906.979126 649,898.826039" id="signiture"></path>
            </g>
        </g>
    </g>
</svg>