<?xml version="1.0" encoding="UTF-8"?>
<svg width="342px" height="69px" viewBox="0 0 342 69" version="1.1" xmlns="http://www.w3.org/2000/svg" xmlns:xlink="http://www.w3.org/1999/xlink">
    <title>VARS_Logo_White</title>
    <g id="Agencies" stroke="none" stroke-width="1" fill="none" fill-rule="evenodd">
        <g id="Varsity" transform="translate(-365.000000, -317.000000)" fill="#FFFFFE">
            <g id="VARS_Logo_White" transform="translate(365.000000, 317.000000)">
                <path d="M41.778,10.141 C37.098,28.702 32.422,47.296 27.75,65.926 C27.508,66.607 27.95,67.267 27.306,67.361 C23.736,67.883 20.167,68.424 16.601,68.986 C15.958,69.088 15.394,68.611 15.154,68.002 C10.488,50.789 4.741,33.611 0.086,16.468 C-0.236,15.957 0.406,14.955 1.049,14.844 C4.394,14.264 7.741,13.703 11.091,13.159 C11.734,13.054 12.056,13.407 12.297,14.096 C14.709,24.114 17.123,34.141 19.537,44.178 C19.752,45.736 19.966,47.293 20.181,48.852 C20.449,47.22 20.717,45.588 20.986,43.957 C23.83,33.12 26.676,22.294 29.522,11.482 C29.683,10.731 30.086,10.27 30.731,10.178 C34.089,9.705 37.448,9.249 40.81,8.811 C41.455,8.727 42.02,9.543 41.778,10.141" id="Fill-1"></path>
                <path d="M74.42,43.052 C72.802,37.678 71.184,32.308 69.567,26.942 C67.922,32.632 66.278,38.328 64.633,44.026 C67.894,43.685 71.156,43.36 74.42,43.052 Z M91.504,59.064 C91.665,59.619 90.936,60.242 90.288,60.291 C87.21,60.529 84.133,60.783 81.057,61.051 C80.409,61.109 79.842,60.592 79.6,60.047 C78.952,57.922 78.305,55.797 77.657,53.672 C72.235,54.164 66.815,54.703 61.4,55.289 C60.753,57.543 60.106,59.797 59.46,62.053 C59.217,62.644 58.652,63.275 58.006,63.346 C54.935,63.689 51.866,64.049 48.798,64.422 C48.152,64.5 47.425,64.023 47.586,63.437 C52.914,44.718 58.247,26.045 63.582,7.417 C63.582,7.39 63.582,7.364 63.582,7.336 C63.906,6.574 64.149,6.144 64.714,6.084 C65.9,5.96 67.086,5.838 68.272,5.719 C69.108,5.635 69.944,5.551 70.779,5.469 C71.966,5.353 73.153,5.239 74.34,5.126 C74.906,5.074 75.23,5.448 75.472,6.153 C75.472,6.179 75.472,6.207 75.472,6.234 C80.813,23.772 86.157,41.437 91.504,59.064 L91.504,59.064 Z" id="Fill-3"></path>
                <g id="Group-7" transform="translate(103.000000, 0.000000)">
                    <path d="M12.784,25.997 C15.623,25.852 18.462,25.72 21.302,25.601 C21.383,25.598 21.626,25.587 21.87,25.334 C22.302,24.885 22.735,24.437 23.168,23.988 C23.493,23.652 23.411,23.331 23.411,23.331 C23.411,20.797 23.411,18.262 23.411,15.729 C23.411,15.729 23.493,15.402 23.168,15.091 C22.735,14.677 22.302,14.263 21.87,13.85 C21.545,13.539 21.221,13.634 21.221,13.634 C18.408,13.752 15.596,13.883 12.784,14.026 C12.784,18.016 12.784,22.007 12.784,25.997 Z M35.34,29.483 C35.34,29.483 35.503,30.611 34.529,31.608 C32.987,33.188 31.445,34.772 29.903,36.36 C29.822,36.416 29.74,36.473 29.659,36.53 C32.418,43.205 35.178,49.892 37.938,56.592 C38.1,57.154 37.369,57.738 36.801,57.752 C33.176,57.846 29.551,57.959 25.926,58.094 C25.278,58.117 24.71,57.574 24.466,57.018 C21.815,50.569 19.165,44.13 16.515,37.704 C15.272,37.762 14.028,37.823 12.784,37.886 C12.784,44.438 12.784,50.989 12.784,57.539 C12.784,58.105 12.298,58.697 11.649,58.73 C8.432,58.898 5.216,59.084 2,59.283 C1.432,59.318 0.865,58.789 0.865,58.223 C0.865,40.131 0.865,22.041 0.865,3.952 C0.865,3.304 1.432,2.783 2,2.748 C10.593,2.212 19.191,1.793 27.793,1.491 C27.793,1.491 28.929,1.29 29.903,2.228 C31.445,3.714 32.987,5.204 34.529,6.698 C35.503,7.64 35.34,8.94 35.34,8.94 C35.34,15.788 35.34,22.635 35.34,29.483 L35.34,29.483 Z" id="Fill-4"></path>
                    <path d="M90.152,8.844 C90.178,8.873 90.206,8.901 90.233,8.928 C90.233,11.705 90.233,14.482 90.233,17.258 C90.233,17.906 89.665,18.374 89.016,18.356 C85.824,18.264 82.63,18.19 79.438,18.13 C78.789,18.119 78.301,17.625 78.301,16.978 C78.301,15.629 78.301,14.282 78.301,12.934 C74.946,12.875 71.591,12.835 68.235,12.813 C68.072,12.812 67.91,12.811 67.666,13.052 C67.234,13.481 66.801,13.91 66.367,14.338 C66.043,14.661 66.043,14.985 66.043,14.985 C66.043,17.168 66.043,19.352 66.043,21.536 C66.071,21.509 66.097,21.483 66.123,21.455 C66.123,21.455 66.043,21.779 66.367,22.104 C66.746,22.483 67.125,22.862 67.504,23.242 C72.565,23.272 77.626,23.342 82.684,23.454 C82.684,23.454 83.821,23.317 84.796,24.391 C86.309,25.938 87.825,27.488 89.341,29.041 C90.315,30.039 90.233,31.17 90.233,31.17 C90.233,37.56 90.233,43.95 90.233,50.339 C90.233,50.339 90.315,51.473 89.341,52.416 C87.825,53.881 86.309,55.351 84.796,56.824 C83.821,57.771 82.684,57.666 82.684,57.666 C75.676,57.512 68.668,57.435 61.659,57.437 C61.659,57.437 60.522,57.518 59.548,56.551 C58.033,55.045 56.517,53.543 55.002,52.043 C54.028,51.08 54.19,49.947 54.19,49.947 C54.19,49.947 54.109,49.866 54.109,49.786 C54.109,47.17 54.109,44.555 54.109,41.94 C54.109,41.293 54.677,40.802 55.326,40.798 C58.52,40.776 61.713,40.771 64.906,40.781 C65.555,40.783 66.043,41.271 66.043,41.918 C66.043,43.131 66.043,44.344 66.043,45.557 C69.454,45.573 72.863,45.606 76.272,45.658 C76.434,45.661 76.516,45.58 76.678,45.421 C77.137,44.997 77.597,44.574 78.058,44.15 C78.301,43.83 78.301,43.507 78.301,43.507 C78.301,41.485 78.301,39.463 78.301,37.441 C78.301,37.441 78.301,37.118 78.058,36.789 C77.597,36.35 77.137,35.912 76.678,35.473 C76.516,35.309 76.434,35.227 76.272,35.224 C71.402,35.151 66.53,35.114 61.659,35.115 C61.659,35.115 60.522,35.196 59.548,34.227 C58.033,32.721 56.517,31.219 55.002,29.72 C54.028,28.756 54.19,27.623 54.19,27.623 C54.163,27.623 54.136,27.623 54.109,27.623 C54.109,21.234 54.109,14.844 54.109,8.455 C54.136,8.455 54.163,8.455 54.19,8.455 C54.19,8.455 54.028,7.323 55.002,6.345 C56.517,4.825 58.033,3.308 59.548,1.794 C60.522,0.741 61.659,0.902 61.659,0.902 C68.668,0.901 75.676,0.977 82.684,1.13 C82.684,1.13 83.821,0.994 84.796,2.069 C86.309,3.615 87.825,5.165 89.341,6.718 C90.315,7.717 90.233,8.847 90.233,8.847 C90.206,8.846 90.178,8.845 90.152,8.844" id="Fill-6"></path>
                </g>
                <path d="M226.868,4.297 C226.868,22.306 226.868,40.316 226.868,58.324 C226.868,58.973 226.332,59.422 225.62,59.377 C222.082,59.15 218.544,58.945 215.007,58.758 C214.293,58.721 213.758,58.209 213.758,57.56 C213.758,39.551 213.758,21.542 213.758,3.534 C213.758,2.885 214.293,2.428 215.007,2.465 C218.544,2.652 222.082,2.858 225.62,3.084 C226.332,3.129 226.868,3.65 226.868,4.297" id="Fill-8"></path>
                <g id="Group-12" transform="translate(243.000000, 4.000000)">
                    <path d="M35.168,5.035 C35.168,8.215 35.168,11.397 35.168,14.579 C35.168,15.225 34.602,15.643 33.957,15.567 C30.538,15.163 27.118,14.776 23.696,14.409 C23.696,28.913 23.696,43.417 23.696,57.922 C23.614,58.48 23.13,58.832 22.563,58.771 C19.384,58.434 16.203,58.113 13.02,57.807 C12.454,57.752 11.969,57.301 11.887,56.728 C11.887,42.224 11.887,27.719 11.887,13.214 C8.464,12.89 5.036,12.583 1.608,12.295 C0.96,12.241 0.393,11.709 0.393,11.063 C0.393,7.881 0.393,4.7 0.393,1.518 C0.394,0.872 0.96,0.352 1.608,0.407 C12.405,1.312 23.188,2.4030038 33.957,3.677 C34.602,3.753 35.168,4.387 35.168,5.035" id="Fill-9"></path>
                    <path d="M85.819,12.56 C85.659,12.855 85.578,13.084 85.417,13.217 C80.574,21.837 75.725,30.496 70.872,39.191 C70.872,47.467 70.872,55.744 70.872,64.021 C70.874,64.668 70.389,65.076 69.746,64.976 C66.555,64.475 63.362,63.99 60.168,63.521 C59.604,63.439 59.04,62.873 59.04,62.225 C59.04,53.949 59.04,45.672 59.04,37.395 C54.18,27.226 49.316,17.094 44.449,7 C44.368,6.828 44.207,6.564 44.126,6.23 C43.884,5.633 44.61,5.161 45.255,5.245 C48.723,5.698 52.191,6.169 55.657,6.661 C56.301,6.751 56.866,7.399 57.106,7.999 C59.739,13.633 62.37,19.279 64.999,24.935 C67.601,20.073 70.203,15.221 72.803,10.381 C73.125,9.867 73.687,9.391 74.331,9.495 C77.76,10.05 81.188,10.625 84.614,11.218 C85.257,11.33 85.979,12.022 85.819,12.56" id="Fill-11"></path>
                </g>
                <path d="M336.892,21.423 L335.417,21.423 L335.417,23.21 L336.851,23.21 C337.555,23.21 338.044,22.885 338.044,22.303 C338.044,21.747 337.611,21.423 336.892,21.423 Z M337.514,23.752 L339.073,25.771 L338.152,25.771 L336.704,23.874 L335.417,23.874 L335.417,25.771 L334.672,25.771 L334.672,20.746 L336.92,20.746 C338.031,20.746 338.815,21.328 338.815,22.262 C338.815,23.088 338.274,23.578 337.514,23.752 Z M336.608,19.134 C334.182,19.134 332.354,21.067 332.354,23.413 C332.354,25.758 334.171,27.665 336.581,27.665 C339.005,27.665 340.834,25.733 340.834,23.387 C340.834,21.042 339.017,19.134 336.608,19.134 Z M336.581,28.303 C333.83,28.303 331.691,26.096 331.691,23.413 C331.691,20.732 333.858,18.497 336.608,18.497 C339.357,18.497 341.498,20.705 341.498,23.387 C341.498,26.07 339.331,28.303 336.581,28.303 L336.581,28.303 Z" id="Fill-13"></path>
            </g>
        </g>
    </g>
</svg>