<?xml version="1.0" encoding="UTF-8"?>
<svg width="359px" height="140px" viewBox="0 0 359 140" version="1.1" xmlns="http://www.w3.org/2000/svg" xmlns:xlink="http://www.w3.org/1999/xlink">
    <title>WildFig_Logo</title>
    <defs>
        <polygon id="path-1" points="0 0.564545455 358.103863 0.564545455 358.103863 140 0 140"></polygon>
    </defs>
    <g id="Agencies" stroke="none" stroke-width="1" fill="none" fill-rule="evenodd">
        <g id="Wildfig" transform="translate(-367.000000, -261.000000)">
            <g id="WildFig_Logo" transform="translate(367.000000, 261.000000)">
                <polyline id="Fill-1" fill="#FFFFFE" points="187.329474 73 195.325446 93.5718225 197.063819 100.335035 197.202635 100.335035 198.523653 93.4302712 204.712297 73 210 73 198.317698 109 195.603985 109 186.493858 85.7515702 185.172839 79.9746208 184.963255 79.9746208 183.572375 85.8223459 174.811555 109 172.099657 109 160 73 166.048921 73 172.933459 93.5010468 174.116569 100.335035 174.186431 100.335035 175.854942 93.3604146 183.294743 73 187.329474 73"></polyline>
                <polygon id="Fill-2" fill="#FFFFFE" points="217 108 223 108 223 73 217 73"></polygon>
                <path d="M239.685675,99.5187737 C239.685675,101.158839 239.970329,102.327958 240.537784,103.030712 C241.107093,103.73255 241.910987,104.083469 242.954103,104.083469 C243.5707,104.083469 244.233658,104.038574 244.944831,103.943285 C245.656004,103.849829 246.460825,103.64001 247.360223,103.311997 L248,107.735592 C247.241539,108.11125 246.188224,108.413608 244.838201,108.649081 C243.488178,108.882722 242.314325,109 241.320352,109 C239.187761,109 237.4344,108.403529 236.061196,107.207839 C234.687065,106.014898 234,103.990929 234,101.135017 L234,59 L239.685675,59 L239.685675,99.5187737" id="Fill-3" fill="#FFFFFE"></path>
                <path d="M266.431858,104.083469 C268.76753,104.083469 270.623516,103.465009 271.998918,102.222591 C273.373423,100.983838 274.311279,99.0982207 274.815174,96.569405 L274.815174,79.1535614 C273.991188,78.4993678 273.05154,78.0311704 271.998918,77.7498855 C270.943606,77.4686005 269.546686,77.3284162 267.806363,77.3284162 C264.644911,77.3284162 262.170263,78.3940005 260.38511,80.5233366 C258.597267,82.6545051 257.703345,86.0601602 257.703345,90.7421341 C257.703345,92.6616518 257.851286,94.4400689 258.149858,96.0783017 C258.447533,97.7174507 258.941566,99.1220428 259.629267,100.292078 C260.315174,101.46303 261.218959,102.38843 262.343309,103.065529 C263.46497,103.744461 264.82782,104.083469 266.431858,104.083469 Z M280.312299,96.0783017 C280.312299,98.4660167 280.335611,100.632919 280.381338,102.574426 C280.427065,104.517766 280.634183,106.425372 281,108.297246 L277.288925,108.297246 L275.915317,103.311997 L275.640057,103.311997 C274.72372,104.951146 273.395838,106.308094 271.655516,107.384673 C269.912503,108.462169 267.875402,109 265.539729,109 C260.956252,109 257.554508,107.524858 255.332705,104.575489 C253.110005,101.62612 252,97.0146965 252,90.7421341 C252,84.7490242 253.385265,80.197156 256.158484,77.0828645 C258.929013,73.9704055 262.743198,72.4128017 267.598349,72.4128017 C269.294738,72.4128017 270.634275,72.5071741 271.620548,72.6931704 C272.604131,72.8809991 273.670202,73.1851899 274.815174,73.6066592 L274.815174,59 L280.312299,59 L280.312299,96.0783017 L280.312299,96.0783017 Z" id="Fill-4" fill="#FFFFFE"></path>
                <path d="M320,73.3460729 L320,108 L314.476157,108 L314.476157,78.198328 L299.908058,78.198328 L299.908058,108 L294.385116,108 L294.385116,78.198328 L289,78.198328 L289,73.3460729 L294.385116,73.3460729 L294.385116,71.4055326 C294.385116,67.0632797 295.455293,63.9092234 297.596548,61.9451724 C299.7351,59.9820255 302.877169,59 307.020051,59 C309.735129,59 312.151135,59.2658522 314.269869,59.7975567 C316.385901,60.3283568 318.042513,60.9640511 319.239706,61.7028309 L317.376805,66.1391267 C316.134571,65.3533255 314.659925,64.7755038 312.958272,64.4056618 C311.253916,64.036724 309.436957,63.8513509 307.503792,63.8513509 C305.799436,63.8513509 304.453608,64.0493836 303.463604,64.4409279 C302.474501,64.8333764 301.714207,65.4347088 301.185424,66.2422123 C300.655741,67.0506201 300.311626,68.0570606 300.149478,69.2570126 C299.988231,70.4587732 299.908058,71.8214918 299.908058,73.3460729 L320,73.3460729" id="Fill-5" fill="#FFFFFE"></path>
                <g id="Group-9">
                    <mask id="mask-2" fill="white">
                        <use xlink:href="#path-1"></use>
                    </mask>
                    <g id="Clip-7"></g>
                    <path d="M344.103772,103.999091 C346.472263,103.999091 348.329066,103.407273 349.676906,102.221818 C351.02202,101.037273 351.974506,99.1909091 352.532547,96.6827273 L352.532547,78.8454545 C350.674835,77.9645455 348.305435,77.5218182 345.426165,77.5218182 C342.267873,77.5218182 339.783957,78.5909091 337.974415,80.7263636 C336.163056,82.8636364 335.256013,86.2081818 335.256013,90.7609091 C335.256013,92.7109091 335.41779,94.5 335.744071,96.1254545 C336.067625,97.7518182 336.581132,99.1454545 337.277319,100.306364 C337.974415,101.468182 338.878732,102.373636 339.993904,103.023636 C341.108167,103.674545 342.47782,103.999091 344.103772,103.999091 Z M358.103863,109.712727 C358.103863,114.217273 356.908711,117.54 354.517499,119.676364 C352.124468,121.811818 348.584456,122.881818 343.895643,122.881818 C341.108167,122.881818 338.866008,122.707273 337.171891,122.359091 C335.475957,122.010909 334.025415,121.558182 332.817539,121 L334.280805,116.261818 C335.348716,116.68 336.533871,117.074545 337.834451,117.446364 C339.134122,117.817273 340.829147,118.003636 342.918618,118.003636 C344.869942,118.003636 346.459539,117.83 347.691046,117.481818 C348.920734,117.132727 349.907757,116.552727 350.651205,115.74 C351.393744,114.927273 351.904524,113.880909 352.184453,112.604545 C352.462565,111.326364 352.60162,109.804545 352.60162,108.04 L352.60162,104.696364 L352.3226,104.696364 C351.393744,106.042727 350.210408,107.077273 348.769863,107.796364 C347.331137,108.516364 345.449795,108.876364 343.128565,108.876364 C338.437934,108.876364 334.987899,107.413636 332.78482,104.486364 C330.577197,101.560909 329.473841,97.0090909 329.473841,90.8309091 C329.473841,84.8845455 330.890754,80.3681818 333.723673,77.2781818 C336.555684,74.19 340.735534,72.6445455 346.263225,72.6445455 C348.909828,72.6445455 351.174709,72.8536364 353.055142,73.2709091 C354.935575,73.69 356.618785,74.1772727 358.103863,74.7345455 L358.103863,109.712727 L358.103863,109.712727 Z" id="Fill-6" fill="#FFFFFE" mask="url(#mask-2)"></path>
                    <path d="M57.7526481,8.58545455 L20.9237924,45.4227273 C10.7536405,55.5963636 5.20504557,69.6809091 5.70037468,84.0663636 C6.20206582,98.6518182 12.5704532,111.990909 23.6303797,121.626364 C43.0836354,138.570909 72.4216608,138.570909 91.8758253,121.626364 C102.935752,111.989091 109.30323,98.65 109.80583,84.0654545 C110.301159,69.6809091 104.752565,55.5963636 94.5824127,45.4227273 L57.7526481,8.58545455 Z M57.7526481,140 C44.2242557,140 30.6949544,135.301818 19.9076861,125.903636 C7.64806329,115.224545 0.590759494,100.434545 0.0336278481,84.2627273 C-0.515324051,68.3109091 5.63675443,52.6936364 16.9148076,41.4136364 L57.7526481,0.564545455 L98.5904886,41.4136364 C109.868542,52.6936364 116.021529,68.31 115.472577,84.2618182 C114.915446,100.434545 107.857233,115.224545 95.598519,125.903636 C84.8112506,135.301818 71.2819494,140 57.7526481,140 L57.7526481,140 Z" id="Fill-8" fill="#FFFFFE" mask="url(#mask-2)"></path>
                </g>
                <path d="M71.5,54 C67.3581426,54 64,57.3581426 64,61.5 C64,65.642747 67.3581426,69 71.5,69 C75.6418574,69 79,65.642747 79,61.5 C79,57.3581426 75.6418574,54 71.5,54 Z M71.5,56.9089076 C74.0317281,56.9089076 76.0910924,58.9682719 76.0910924,61.5 C76.0910924,64.0317281 74.0317281,66.091982 71.5,66.091982 C68.9682719,66.091982 66.9089076,64.0317281 66.9089076,61.5 C66.9089076,58.9682719 68.9682719,56.9089076 71.5,56.9089076 L71.5,56.9089076 Z" id="Fill-10" fill="#FFFFFE"></path>
                <path d="M220.499564,57 C222.98082,57 225,59.0183086 225,61.4995641 C225,63.9808195 222.98082,66 220.499564,66 C218.01918,66 216,63.9808195 216,61.4995641 C216,59.0183086 218.01918,57 220.499564,57" id="Fill-11" fill="#FFFFFE"></path>
                <path d="M53,61.5 C53,65.642747 49.6418574,69 45.5,69 C41.3581426,69 38,65.642747 38,61.5 C38,57.3581426 41.3581426,54 45.5,54 C49.6418574,54 53,57.3581426 53,61.5" id="Fill-12" fill="#FFFFFE"></path>
                <path d="M42,83.5 C42,87.6418574 38.6418574,91 34.5,91 C30.357253,91 27,87.6418574 27,83.5 C27,79.3581426 30.357253,76 34.5,76 C38.6418574,76 42,79.3581426 42,83.5" id="Fill-13" fill="#FFFFFE"></path>
                <path d="M67,83.5 C67,87.6418574 63.6418574,91 59.5,91 C55.3581426,91 52,87.6418574 52,83.5 C52,79.3581426 55.3581426,76 59.5,76 C63.6418574,76 67,79.3581426 67,83.5" id="Fill-14" fill="#FFFFFE"></path>
                <path d="M90,83.5 C90,87.6418574 86.6418574,91 82.5,91 C78.3581426,91 75,87.6418574 75,83.5 C75,79.3581426 78.3581426,76 82.5,76 C86.6418574,76 90,79.3581426 90,83.5" id="Fill-15" fill="#FFFFFE"></path>
                <path d="M78,105.499555 C78,109.642548 74.6425479,113 70.5004448,113 C66.3574521,113 63,109.642548 63,105.499555 C63,101.357452 66.3574521,98 70.5004448,98 C74.6425479,98 78,101.357452 78,105.499555" id="Fill-16" fill="#FFFFFE"></path>
                <path d="M53,105.499555 C53,109.642548 49.6418574,113 45.5,113 C41.3581426,113 38,109.642548 38,105.499555 C38,101.357452 41.3581426,98 45.5,98 C49.6418574,98 53,101.357452 53,105.499555" id="Fill-17" fill="#FFFFFE"></path>
            </g>
        </g>
    </g>
</svg>